<?xml version="1.0" standalone="no"?>
<!DOCTYPE svg PUBLIC "-//W3C//DTD SVG 1.1//EN" "http://www.w3.org/Graphics/SVG/1.1/DTD/svg11.dtd" >
<svg xmlns="http://www.w3.org/2000/svg">
<metadata>
Created by FontForge 20120731 at Thu Jun  4 14:36:11 2015
 By Ads
</metadata>
<defs>
<font id="iconfont" horiz-adv-x="1024" >
  <font-face 
    font-family="iconfont"
    font-weight="500"
    font-stretch="normal"
    units-per-em="1024"
    panose-1="2 0 6 3 0 0 0 0 0 0"
    ascent="812"
    descent="-212"
    x-height="792"
    bbox="0 -212 1024 812"
    underline-thickness="50"
    underline-position="-100"
    unicode-range="U+0078-E663"
  />
<missing-glyph horiz-adv-x="374" 
d="M34 0v682h272v-682h-272zM68 34h204v614h-204v-614z" />
    <glyph glyph-name=".notdef" horiz-adv-x="374" 
d="M34 0v682h272v-682h-272zM68 34h204v614h-204v-614z" />
    <glyph glyph-name=".null" horiz-adv-x="0" 
 />
    <glyph glyph-name="nonmarkingreturn" horiz-adv-x="341" 
 />
    <glyph glyph-name="x" unicode="x" horiz-adv-x="1001" 
d="M281 543q-27 -1 -53 -1h-83q-18 0 -36.5 -6t-32.5 -18.5t-23 -32t-9 -45.5v-76h912v41q0 16 -0.5 30t-0.5 18q0 13 -5 29t-17 29.5t-31.5 22.5t-49.5 9h-133v-97h-438v97zM955 310v-52q0 -23 0.5 -52t0.5 -58t-10.5 -47.5t-26 -30t-33 -16t-31.5 -4.5q-14 -1 -29.5 -0.5
t-29.5 0.5h-32l-45 128h-439l-44 -128h-29h-34q-20 0 -45 1q-25 0 -41 9.5t-25.5 23t-13.5 29.5t-4 30v167h911zM163 247q-12 0 -21 -8.5t-9 -21.5t9 -21.5t21 -8.5q13 0 22 8.5t9 21.5t-9 21.5t-22 8.5zM316 123q-8 -26 -14 -48q-5 -19 -10.5 -37t-7.5 -25t-3 -15t1 -14.5
t9.5 -10.5t21.5 -4h37h67h81h80h64h36q23 0 34 12t2 38q-5 13 -9.5 30.5t-9.5 34.5q-5 19 -11 39h-368zM336 498v228q0 11 2.5 23t10 21.5t20.5 15.5t34 6h188q31 0 51.5 -14.5t20.5 -52.5v-227h-327z" />
    <glyph glyph-name="uniE600" unicode="&#xe600;" 
d="M599 268q-27 22 -73 22q-50 0 -81 -30q-27 -26 -27 -64q0 -46 35 -68q31 -19 78 -19q56 0 83 28q21 24 21 57q0 45 -36 74zM467 389q26 -23 61 -23q40 0 68 29q23 25 23 59q0 38 -30 64q-26 23 -62 23q-39 0 -66 -29q-24 -25 -24 -58q0 -40 30 -65zM527.5 765
q-72.5 0 -141 -23t-123.5 -64.5t-96.5 -96.5t-64 -123t-22.5 -141q0 -91 35.5 -174t95 -143t142.5 -95.5t174.5 -35.5t174.5 35.5t143 95.5t95 143t35 174q0 73 -22.5 141t-64 123t-96.5 96.5t-123.5 64.5t-141 23zM673 84q-48 -52 -145 -52q-78 0 -129 34q-60 42 -60 118
q0 84 77 148q-27 26 -37 47q-19 36 -19 78q0 76 54 123q44 38 112 38q88 0 136 -58q35 -43 35 -102q0 -22 -5.5 -42t-15.5 -38q-12 -18 -42 -47q37 -25 53 -49q26 -42 26 -91q0 -62 -40 -107z" />
    <glyph glyph-name="uniE601" unicode="&#xe601;" horiz-adv-x="1000" 
d="M35 38l434 593l433 -593h-867z" />
    <glyph glyph-name="uniE602" unicode="&#xe602;" 
d="M959 -81q0 -32 -23 -55t-55 -23h-738q-32 0 -55 23t-23 55v738q0 16 6.5 30.5t16.5 24.5t24.5 16.5t30.5 6.5h738q32 0 55 -23t23 -55v-738z" />
    <glyph glyph-name="uniE603" unicode="&#xe603;" 
d="M76 724zM76 277.5q0 -88.5 34.5 -169.5t92.5 -139.5t139 -93t170 -34.5t170 34.5t139 93t92.5 139.5t34.5 169.5t-34.5 169.5t-92.5 139.5t-139 93t-170 34.5t-170 -34.5t-139 -93t-92.5 -139.5t-34.5 -169.5z" />
    <glyph glyph-name="uniE604" unicode="&#xe604;" 
d="M508 743q-9 0 -15.5 -2.5t-11.5 -8.5q-10 -10 -15 -24l-103 -236l-275 -25q-10 -2 -17 -9q-4 -3 -6.5 -8t-3.5 -11q-2 -12 5 -25q8 -11 19 -21l10 -9l22 -19q22 -19 31 -26l36 -30q30 -26 94 -80l-30 -124q-6 -22 -12 -47q-7 -27 -11 -42q-4 -20 -8 -32l-4 -17
q-2 -8 2 -16q2 -4 4.5 -7t6.5 -5.5t8 -4.5t9 -2l4 -1q2 0 4.5 0.5t5 1.5t4.5 2t6.5 3t10.5 6q11 5 31 17q10 6 40 23q27 16 44 25q46 26 115 66l232 -134l13 -5q3 -1 5 -2h4q2 -1 4 -1q6 0 12 1.5t12 4.5q11 6 8 23l-4 17l-6 33q-3 11 -5 21.5t-4 22.5q-2 11 -4.5 22.5
t-5.5 24.5q-4 22 -8 40t-9 41.5t-9 45.5l184 164q12 14 19 22q4 5 6 10.5t2 11.5q0 13 -7 19q-8 6 -25 11l-276 25l-99 237q-1 1 -1.5 2.5t-1.5 3t-2 3.5q-4 6 -8 10q-2 3 -4.5 5.5t-6.5 4.5q-7 3 -15 4z" />
    <glyph glyph-name="uniE605" unicode="&#xe605;" 
d="M891 749q29 0 53 -11t42 -29.5t28 -43.5t10 -54v-620q0 -29 -10 -54t-28 -43.5t-42 -29t-53 -10.5h-689q-29 0 -54 10.5t-43.5 29t-29 43.5t-10.5 54v620q0 29 10.5 54t29 43.5t43.5 29.5t54 11h689zM256 557q9 0 27.5 -0.5t43.5 -0.5h52h55q65 0 141 1v64h-126v64h-65
v-64h-128v-64zM378 452q-8 15 -16 29q-6 13 -12 25.5t-9 20.5l-58 -21l32 -77zM255 55l101 144l-66 26l-99 -145zM449 238h126v62h-45h-81v65q23 0 45.5 -1t41.5 -1h41v64h-67q-20 0 -41 1l69 66l-69 32l-20 -98h-258v-63h36h47h54h56v-65h-128v-62h41q18 0 40.5 -0.5
t46.5 0.5v-129q0 -17 -2 -27.5t-10 -15.5t-25 -5t-48 6q26 -32 28 -72q13 2 34 1t40.5 1.5t33.5 12.5t14 35v193zM568 127q-16 19 -29 38l-24 30q-12 15 -18 23l-46 -31l64 -98zM896 432q-20 1 -53 0.5t-64 -1.5q-37 -1 -76 -3v129q50 0 86 4.5t60 9.5q28 7 46 15
q-18 27 -30 46q-5 8 -9.5 15t-7.5 11t-3.5 5t1.5 -5q-22 -16 -57.5 -23.5t-69.5 -10.5t-57.5 -3t-21.5 0q1 -17 1.5 -44.5t0 -78t-1 -129t-0.5 -196.5q0 -13 -3 -33t-10 -40t-20 -35.5t-32 -19.5q13 -3 22 -11.5t17 -18.5t14 -19.5t12 -14.5q12 18 23.5 42t20.5 50t14 52.5
t5 47.5v41v43v47v61h65v-384h63v384q24 -2 36 -1t29 -4v72z" />
    <glyph glyph-name="uniE606" unicode="&#xe606;" 
d="M898 287l-387 -381l-381 381h150l231 -230l230 230h157zM898 607l-387 -382l-381 382h150l231 -231l230 231h157z" />
    <glyph glyph-name="uniE607" unicode="&#xe607;" 
d="M126 301l387 381l381 -381h-150l-231 230l-230 -230h-157zM126 -19l387 382l381 -382h-150l-231 231l-230 -231h-157z" />
    <glyph glyph-name="uniE608" unicode="&#xe608;" 
d="M482 83q-24 0 -41.5 -17.5t-17.5 -42.5t17.5 -42.5t42 -17.5t42 17.5t17.5 42.5q0 16 -8 30t-21.5 22t-30.5 8zM769 83q-25 0 -42.5 -17.5t-17.5 -42.5q0 -16 8 -30t21.5 -22t30.5 -8q25 0 42.5 17.5t17.5 42.5q0 38 -34 54q-13 6 -26 6zM839 193h-417l-143 425
q-7 18 -29 18h-127q-13 0 -22 -8t-9 -20q0 -4 1 -7t2.5 -6t3.5 -5.5t4.5 -4.5t5.5 -3.5t6.5 -2t7.5 -0.5h105l143 -424q7 -19 29 -19h439q13 0 21.5 8t8.5 20.5t-8.5 20.5t-21.5 8zM904 524l-516 45q-12 1 -18.5 -7t-1.5 -20l90 -270q4 -12 16 -21.5t24 -9.5h377q12 0 22 10
t11 23l23 216q1 8 -2 15.5t-10 12.5t-15 6z" />
    <glyph glyph-name="uniE609" unicode="&#xe609;" 
d="M512 812l-451 -507l453 -507l452 502z" />
    <glyph glyph-name="uniE60A" unicode="&#xe60a;" 
d="M512 748q-91 0 -174 -35.5t-143 -95.5t-95.5 -143t-35.5 -174t35.5 -174t95.5 -143t143 -95.5t174 -35.5t174 35.5t143 95.5t95.5 143t35.5 174t-35.5 174t-95.5 143t-143 95.5t-174 35.5zM768 236h-192v-192h-128v192h-192v128h192v192h128v-192h192v-128z" />
    <glyph glyph-name="uniE60B" unicode="&#xe60b;" 
d="M957 585q-18 -18 -49 -51q-36 -37 -66 -68l-26 -26l-26 -26l-28 -28q-48 -48 -87 -88l91 -94q32 -33 83 -84q45 -46 71 -74q29 -30 54 -56q15 -16 23 -33.5t8 -36.5q1 -38 -31 -70q-3 -2 -9 -7l-3 -3q-1 -1 -3 -2.5t-3 -3.5l-4 -3q-6 -6 -12.5 -11t-8.5 -6
q-31 -25 -65 -16q-17 5 -32.5 14.5t-29.5 23.5q-11 11 -23.5 24t-28.5 29q-30 31 -68 70q-5 4 -13 12.5t-13.5 14t-13 13.5t-14.5 15l-14 14l-14 14q-64 66 -90 92q-27 -27 -106 -107l-93 -93l-15 -16l-15 -14q-7 -7 -13.5 -14t-13 -13t-11.5 -12l-38 -39q-4 -5 -9 -9
l-10 -8q-5 -4 -9.5 -6.5t-9.5 -5t-10 -3.5t-9 -2q-29 -3 -65 22q-9 7 -26 22q-18 17 -27 29q-22 32 -21.5 64t31.5 64q18 17 33 33l31 31q23 23 37 38q13 13 94 95q58 60 110 113q-60 62 -102 105q-52 53 -88 89l-65 70q-14 13 -23.5 22.5t-15.5 14.5q-13 14 -24 30t-16 33
q-5 18 -3 36t16 35q1 3 8 10l35 36q35 32 80 21t91 -58q48 -51 116 -121l154 -159l284 293q16 17 34.5 27.5t38.5 15.5q41 8 71 -10q2 -2 4.5 -3.5t5 -3.5t5.5 -5q9 -7 18.5 -18t17.5 -21t13 -18q22 -39 6 -70q-4 -8 -9.5 -16t-12 -17t-14 -17.5t-15.5 -18.5zM957 585z" />
    <glyph glyph-name="uniE60C" unicode="&#xe60c;" 
d="M966 663l-91 91l-363 -363l-363 363l-91 -91l363 -363l-363 -363l91 -91l363 363l363 -363l91 91l-363 363z" />
    <glyph glyph-name="uniE60D" unicode="&#xe60d;" horiz-adv-x="1025" 
d="M537 337h183v-76h-183v76zM537 457h183v-75h-183v75zM303 337h183v-76h-183v76zM303 457h183v-75h-183v75zM512 738q-186 0 -318 -132t-132 -318t132 -318t318 -132q92 0 175 35.5t143.5 96t96 143.5t35.5 175t-35.5 175t-96 143.5t-143.5 96t-175 35.5zM537 93v-139h-51
v139h-299v47h299v75h-183v-31h-50v319h137q-16 19 -33 37.5t-35 38.5l37 31q49 -47 86 -87l-25 -20h155q36 48 73 105l53 -29l-22 -26q-11 -13 -22 -25.5t-22 -24.5h135v-319h-50v31h-183v-75h298v-47h-298z" />
    <glyph glyph-name="uniE60E" unicode="&#xe60e;" horiz-adv-x="1025" 
d="M667 505h-166q-14 -19 -29 -36.5t-31 -34.5h175q9 13 18 25t17 23.5t16 22.5zM512 738q-186 0 -318 -132t-132 -318t132 -318t318 -132q92 0 175 35.5t143.5 96t96 143.5t35.5 175t-35.5 175t-96 143.5t-143.5 96t-175 35.5zM512 612l51 -10q-15 -28 -32 -54h196v-42
l-54 -72h118v-269h-50v24h-317v44h317v57h-304v44h304v56h-303v41l-9 -9q-4 4 -8.5 8t-9.5 8t-10 8.5t-11 8.5q75 68 122 157zM657 101l-40 -28q-15 23 -31 45t-33 44l35 25q39 -45 69 -86zM324 -42h-49v292q-34 -91 -83 -155q-9 28 -22 55q62 86 101 216h-89v46h93v105
q-39 -4 -80 -7q-3 21 -9 48q107 6 216 21l10 -48l-88 -10v-109h82v-46h-82v-79l27 22q37 -39 70 -79l-39 -33q-14 21 -28.5 39.5t-29.5 35.5v-314zM399 3q-11 6 -22.5 11t-23.5 9q32 57 54 127l44 -15q-23 -70 -52 -132zM727 31q-14 -58 -79 -58h-88q-82 0 -82 81v96h50v-94
q0 -37 42 -37h63q42 0 49 33q6 25 10 61q22 -10 50 -20q-7 -34 -15 -62zM795 9q-22 53 -57 121l43 19q37 -70 59 -118z" />
    <glyph glyph-name="uniE60F" unicode="&#xe60f;" horiz-adv-x="1025" 
d="M512 738q-186 0 -318 -132t-132 -318t132 -318t318 -132q92 0 175 35.5t143.5 96t96 143.5t35.5 175t-35.5 175t-96 143.5t-143.5 96t-175 35.5zM259 576q12 -10 23 -20t22.5 -20t22.5 -21l22 -22q11 -11 22 -23l-46 -39q-50 59 -103 111zM283 -6l-55 22q46 140 79 283
q14 -7 27.5 -12.5t26.5 -9.5q-42 -148 -78 -283zM813 227q-84 -88 -164 -169q45 -24 94 -51l-33 -47q-151 90 -277 152l28 43q65 -32 139 -71q83 81 142 143h-341v49h412v-49zM546 421l40 28q15 -18 30.5 -36.5t30 -37t27.5 -36.5l-44 -30q-42 61 -84 112zM613 558
q-70 -131 -226 -229q-16 24 -36 46q163 83 240 242h60l-9 -16q90 -159 237 -216q-12 -13 -21.5 -25.5t-18.5 -24.5q-140 77 -226 223z" />
    <glyph glyph-name="uniE610" unicode="&#xe610;" horiz-adv-x="1025" 
d="M527 348h203v-131h-203v131zM296 525h79v-118h-79v118zM527 520h203v-130h-203v130zM512 738q-186 0 -318 -132t-132 -318t132 -318t318 -132q92 0 175 35.5t143.5 96t96 143.5t35.5 175t-35.5 175t-96 143.5t-143.5 96t-175 35.5zM481 562h294v-425h-45v39h-203v-39h-46
v425zM418 59q0 -50 -42 -56q-23 -4 -73 0q-2 20 -7 44q35 -4 53 -4q26 0 26 27v144h-79q1 -147 -54 -223q-21 22 -35 35q47 59 46 197v341h165v-505zM816 23h-375v43h375v-43zM296 369h79v-117h-79v117z" />
    <glyph glyph-name="uniE611" unicode="&#xe611;" 
d="M377 211q-16 -2 -27.5 -14t-11.5 -27q0 -14 12 -22.5t29 -6.5q8 1 15.5 4.5t13 8.5t9 12t3.5 14q0 14 -12 23.5t-31 7.5zM434 226q-6 -4 -7 -11t2 -12q7 -12 21 -2q14 11 6 23q-7 13 -22 2zM512 736q-73 0 -141 -23t-123.5 -64.5t-97 -96.5t-64 -123t-22.5 -141
q0 -92 35.5 -174.5t95.5 -142.5t143 -95.5t174 -35.5t174 35.5t143 95.5t95.5 142.5t35.5 174t-35.5 174.5t-95.5 143t-143 95.5t-174 35.5zM757 175q-23 -50 -80.5 -86t-124 -50.5t-128.5 -9.5q-38 3 -71.5 9t-70.5 20t-64 33.5t-47 51.5t-24 72q-1 7 -0.5 19.5t13.5 50.5
t40 74q3 5 9.5 13.5t27.5 31.5t42 42.5t51.5 39.5t59.5 30t50.5 10.5t33.5 -5.5t19 -18t9 -22.5t2 -23.5q-1 -4 -2.5 -11.5t-2 -10.5t-1 -7.5t1 -6t4.5 -2.5t8.5 0t13.5 3q5 2 12 5t26.5 9t36.5 8t36.5 -1.5t30.5 -14.5q7 -7 11 -15t5 -15.5t0.5 -15t-2.5 -13.5l-4 -11
q-1 -4 -3 -7l-1 -3q-1 0 -1.5 -1t-1.5 -4t0 -5.5t5 -5.5t12 -4q9 -2 19 -6.5t23 -12.5t22.5 -20.5t15.5 -28t3.5 -38t-14.5 -47.5zM658 465q-8 0 -13.5 6t-5.5 14t5.5 14t13.5 6q3 0 7.5 0.5t17 0.5t23.5 -2.5t24 -10t21.5 -19t13.5 -32t2 -47.5l-1 -2q0 -3 -2 -6.5
t-4.5 -5.5t-5.5 -3.5t-7 -1.5q-5 0 -10 3t-7.5 7.5t-2.5 9.5l1 3q0 3 0.5 8t0.5 11.5t-1.5 13t-4.5 13t-8 11.5t-12.5 8.5t-18.5 3.5t-26 -3zM866 373q-1 -17 -4 -25t-5.5 -9t-9 1t-8.5 2q-5 0 -9.5 1t-8 3t-6 4.5t-4 6.5t-1.5 9q0 4 0.5 8t1.5 7t1.5 5t1.5 4l1 1v1
q3 9 4.5 17.5t-1 30.5t-12.5 45q-15 26 -39.5 43t-44.5 21.5t-38 7t-21 -1.5l-6 -2l-8 -2q-3 -1 -5.5 -1.5t-4.5 -0.5l-2 -1q-12 0 -20 8.5t-8 20.5q0 22 21 27v1h3q2 0 10.5 2.5t17.5 4.5t20.5 4t25 1.5t25.5 -3.5q30 -7 59 -25t53.5 -48.5t30.5 -72t-10 -95.5v0zM433 352
q-90 -4 -153 -47t-63 -103t63 -99t153 -35q89 4 153 52t64 108q0 59 -62.5 93.5t-154.5 30.5zM515 151q-29 -38 -77 -48.5t-103 15.5q-15 9 -23 22t-9 23v9q0 3 -0.5 7t0.5 16t4 23t10 25t18 25t30.5 19.5t43.5 11.5q43 5 72.5 -10.5t40 -40.5t9 -52t-15.5 -45z" />
    <glyph glyph-name="uniE612" unicode="&#xe612;" 
d="M616 100h-47q-6 3 -6 14v100l-54 -1v-111q0 -1 0.5 -3t3.5 -7t7.5 -9t13 -7t19.5 -3h90v134h-27v-107zM455 207h-50h-5q-4 0 -12.5 -2.5t-16.5 -7.5t-16.5 -15.5t-12.5 -25.5q-1 -7 -1.5 -13.5t0 -11.5t1 -9t2 -7.5t2 -5.5t2 -3.5t1.5 -2.5q2 -4 6.5 -10t17.5 -13t30 -7
h79v202h-27v-68zM455 100h-40h-3q-1 0 -5.5 1.5t-8.5 4.5t-8.5 9t-6.5 13q-3 13 3 31q2 7 9 14t18 7h42v-80zM512 732q-72 0 -140 -22.5t-122.5 -63.5t-95.5 -95.5t-63.5 -122.5t-22.5 -140q0 -91 35.5 -173t95 -141.5t141.5 -94.5t172.5 -35t172.5 35t141.5 94.5
t94.5 141.5t35 172.5t-35 172.5t-94.5 141.5t-141.5 95t-173 35.5zM539 496q2 16 13.5 35t28.5 31t31 9q24 -6 41 -31.5t13 -51.5q-5 -31 -26 -55.5t-51 -20.5q-31 3 -42 27t-8 57zM448.5 585q24.5 0 41.5 -24.5t17 -59.5q0 -23 -8 -42t-21.5 -30.5t-29.5 -11.5
q-7 0 -13.5 2t-12.5 6.5t-11 10t-9 13t-7 15.5t-4.5 17.5t-1.5 19.5q0 35 17.5 59.5t42 24.5zM264 386q0 3 1 7.5t4.5 17t9 22t16 17.5t24.5 9q26 3 46 -18.5t23 -43.5q1 -11 1 -21t-3 -28t-15 -31.5t-33 -17.5q-39 -9 -59.5 24t-14.5 63zM714 89q-7 -16 -19 -26.5t-25 -15
t-29 -5.5t-28.5 0t-25.5 4t-17 4t-7 2q-2 1 -5 1.5t-13 2.5t-20.5 3t-26 0t-29.5 -4q-22 -5 -45.5 -7t-36.5 -1l-12 1l-23 4q-41 17 -53 69q-3 24 0 41t14 32.5t20.5 24.5t19.5 16.5t11 8.5t6.5 6t13 11.5t16 15t18 20t16.5 23.5q10 16 27.5 28t39 15.5t45.5 -9t43 -41.5
q6 -9 13.5 -18.5t15.5 -18.5l16 -16q8 -9 15.5 -16t14.5 -13t12.5 -11t10 -8.5t6.5 -5.5l2 -2q2 -1 5.5 -4.5t10.5 -14t10.5 -23t2.5 -32.5t-10 -41zM704 262q-16 0 -27.5 3t-19 9.5t-12 13t-6.5 16.5t-2.5 17t-0.5 17q0 82 59 82q34 0 50 -24t16 -44l1 -7q0 -7 -0.5 -11
t-1 -12t-2 -14t-4 -13.5t-7 -12.5t-10.5 -10t-14.5 -7.5t-18.5 -2.5z" />
    <glyph glyph-name="uniE613" unicode="&#xe613;" horiz-adv-x="1025" 
d="M615 322h123v-45h-123v45zM615 405h123v-44h-123v44zM446 405h122v-44h-122v44zM446 322h122v-45h-122v45zM512 738q-186 0 -318 -132t-132 -318t132 -318t318 -132q92 0 175 35.5t143.5 96t96 143.5t35.5 175t-35.5 175t-96 143.5t-143.5 96t-175 35.5zM684 608
q24 -10 45 -19.5t38 -18.5l-20 -37q-40 22 -83 42zM366 532h202v76h47v-76h211v-42h-211v-44h171v-245h-48v36h-123v-42h-47v42h-122v-49h-48v258h170v44h-202v42zM303 -40h-49v415h-67v48h67v185h49v-185h63v-48h-63v-415zM514 15q-39 33 -87 67l29 33q48 -31 90 -65z
M736 118v-76q0 -74 -80 -74q-18 0 -41.5 0.5t-50.5 0.5q-3 21 -8 49q53 -4 95 -4q36 0 36 35v69h-338v42h338v39h49v-39h106v-42h-106z" />
    <glyph glyph-name="uniE614" unicode="&#xe614;" 
d="M517 544q-42 0 -78 -21t-57 -57t-21 -78q0 -5 2 -17l82 13v3l-1 4q0 29 21 50t51 21q19 0 35.5 -9.5t26 -26t9.5 -35.5q0 -15 -5.5 -28.5t-15.5 -23t-23 -14.5q-8 -5 -19.5 -15t-33 -38.5t-30.5 -59.5q0 -1 -1 -2v-1q-1 -2 -1 -7l-1 -5l89 -1q3 20 16 35t33 20v1
q47 26 69 82h-1q5 13 7.5 26.5t2.5 27.5q0 64 -45.5 110t-110.5 46zM515.5 737q-91.5 0 -174.5 -35.5t-143 -96t-95.5 -143.5t-35.5 -174t35.5 -174t95.5 -143.5t143 -96t174.5 -35.5t174.5 35.5t143 96t95.5 143.5t35.5 174t-35.5 174t-95.5 143.5t-143 96t-174.5 35.5z
M517 -52q-70 0 -133 27t-109 73t-73 109t-27 133q0 92 45.5 171t124.5 125t172 46t171.5 -46t124.5 -125t46 -171.5t-46 -171.5t-124.5 -124.5t-171.5 -45.5zM517.5 140q-22.5 0 -38.5 -16t-16 -38.5t16 -38.5t39 -16q14 0 26.5 7t20 20t7.5 27q0 23 -16 39t-38.5 16z" />
    <glyph glyph-name="uniE615" unicode="&#xe615;" 
d="M1002 535h-980q-5 0 -9 -3.5t-4 -8.5v-464q0 -3 2 -6t4.5 -4.5t6.5 -1.5h330l160 -156l155 156h335q5 0 9 3.5t4 8.5v464q0 3 -2 6t-4.5 4.5t-6.5 1.5zM355 429h211v-48h-153v-63h143v-48h-143v-78h159v-48h-217v285zM294 144h-58l-114 186v-186h-54v285h56l117 -190v190
h53v-285zM898 144h-61l-57 213l-57 -213h-62l-68 285h59l43 -195l52 195h68l50 -199l44 199h58z" />
    <glyph glyph-name="uniE616" unicode="&#xe616;" 
d="M512 738q-92 0 -175 -35.5t-143.5 -96t-96 -143.5t-35.5 -175t35.5 -175t96 -143.5t143.5 -96t175 -35.5t175 35.5t143.5 96t96 143.5t35.5 175q0 61 -16 119.5t-45 108t-70.5 91t-91 70.5t-108 45t-119.5 16zM760 148q-9 -8 -22.5 -0.5t-28.5 27.5q-3 -8 -6.5 -16
t-7.5 -16t-8.5 -15.5t-9.5 -14.5q21 -7 33 -18t12 -23q0 -22 -34 -38t-83 -16q-58 0 -93 22q-34 -22 -93 -22q-48 0 -82 16t-34 38q0 12 11.5 23t32.5 18q-9 14 -17 29.5t-15 32.5q-14 -20 -27.5 -27.5t-22.5 0.5q-12 11 -8 45.5t21 71.5q4 9 8.5 16.5t9.5 14.5
q2 109 65 185.5t151 76.5q58 0 107.5 -35t78.5 -95t31 -132q9 -14 17 -31q18 -37 22 -71.5t-8 -45.5z" />
    <glyph glyph-name="uniE617" unicode="&#xe617;" 
d="M494 287q16 -16 39 -16t39.5 16.5t16.5 39.5t-16 39q-11 11 -25.5 15t-28.5 0t-25 -14.5t-15 -25t0 -29t15 -25.5zM512 748q-73 0 -141.5 -22.5t-123.5 -64t-96.5 -96.5t-64 -123.5t-22.5 -141.5t22.5 -141.5t64 -123.5t96.5 -96.5t123.5 -64t141.5 -22.5q91 0 174 35.5
t143 95.5t95.5 143t35.5 174q0 52 -12 102.5t-34 94.5t-52.5 83t-69.5 69.5t-83 52.5t-94.5 34t-102.5 12zM192 211q-1 5 -2 14t1 35.5t9 53t26.5 61.5t49.5 65q18 18 39 25.5t38.5 6.5t32 -5t23.5 -8l8 -5q-3 -3 -8.5 -9.5t-21 -27t-31 -42.5t-35 -55.5t-34.5 -66.5
q-20 -1 -37 -6t-27 -11t-17.5 -11.5t-10.5 -9.5zM323 64v26l-57 -29l27 59l-34 -11l24 56l89 -88zM647 70q-30 -30 -64.5 -50t-62.5 -27t-52 -9t-37 -1t-13 2q4 3 10 9t17.5 30.5t14.5 55.5q52 25 102 57.5t75 52.5l24 20q0 -1 1 -2.5t4 -7.5t5 -12t4.5 -15.5t3 -18.5
t-0.5 -20t-4 -21.5t-10 -21.5t-17 -21zM639 225q-15 -16 -45 -37.5t-61.5 -40.5t-61 -36t-48.5 -27l-19 -10l-123 123q10 20 27 51.5t57.5 95.5t65.5 89q19 18 37.5 33.5t38.5 27.5l194 -193q-13 -20 -28 -39t-34 -37zM712 319l-187 186q108 62 215 46l54 54l15 -16l-52 -52
q1 -8 2 -16.5t1 -22.5t-1 -28.5t-4 -32.5t-8.5 -36.5t-14 -40t-20.5 -41.5z" />
    <glyph glyph-name="uniE618" unicode="&#xe618;" horiz-adv-x="1000" 
d="M1000 412l-346 50l-154 314l-154 -314l-346 -50l250 -243l-59 -345l309 163l309 -163l-59 345z" />
    <glyph glyph-name="uniE619" unicode="&#xe619;" 
d="M254 667q72 56 157.5 79.5t172.5 13.5q43 -5 84.5 -18t79.5 -34t72.5 -50t63.5 -65q56 -72 79.5 -157.5t13.5 -172.5t-53 -165t-114 -134q-36 -29 -76.5 -49t-82 -31.5t-85.5 -15t-86 1.5q-87 11 -165 53.5t-134.5 114t-80 157t-13.5 172.5t53 165t114 135zM385 512
l-71 -25l-72 -25q-12 -4 -16 8v1v1l-5 50l-2 15q-18 -27 -32 -56t-23 -59.5t-12 -61.5q-2 -16 -2.5 -31.5t-0.5 -30.5l7 10l28 42q7 10 17 3l2 -2l52 -55l52 -55l3 -8l5 -76l4 -76q0 -5 -3 -8.5t-8 -4.5q-2 0 -4 1l-48 8l-28 5l2 -2l2 -2q41 -52 95.5 -86.5t116.5 -49.5
l-17 24l-30 40q-2 2 -2.5 4t0 4.5t2 4.5t2.5 4q2 0 3 1l70 30l70 30q2 1 4 1t4 -1l73 -21l72 -22q12 -4 9 -15l-2 -3l-24 -43l-15 -25q29 10 55.5 25t51.5 35q55 43 91 104l-12 -4l-47 -16q-5 -2 -9.5 0.5t-6.5 6.5v3l-7 76l-7 76q0 4 2 8l43 62l43 63q7 10 17 3l2 -2
l34 -37q-12 106 -78 192v-8l1 -50q-2 -11 -12 -12h-3l-74 17l-74 16q-2 1 -4 2.5t-3 2.5l-46 60l-47 60q-3 4 -2 9t5 8q0 1 0.5 1.5t1.5 0.5l46 20l14 7q-30 8 -61 12q-83 9 -162 -16h2l47 -16q12 -3 8 -15q0 -1 -0.5 -1.5t-0.5 -1.5l-40 -64l-39 -65q-2 -4 -7 -5v0z
M443 450q-2 0 -4 -0.5t-3.5 -2t-2.5 -3t-1 -3.5l-24 -85l-24 -85q-3 -8 5 -13l73 -49l73 -49q8 -5 15 0l69 55l70 55q2 1 3 3.5t1 4.5v6l-31 82l-31 83q-3 9 -12 8l-88 -3z" />
    <glyph glyph-name="uniE61A" unicode="&#xe61a;" horiz-adv-x="1000" 
d="M1000 412l-346 50l-154 314l-154 -314l-346 -50l250 -243l-59 -345l309 163l309 -163l-59 345zM500 64l-218 -115l41 243l-176 173l244 35l109 221l109 -221l244 -35l-176 -173l41 -243z" />
    <glyph glyph-name="uniE61B" unicode="&#xe61b;" horiz-adv-x="1000" 
d="M1000 412l-346 50l-154 314l-154 -314l-346 -50l250 -243l-59 -345l309 163l309 -163l-59 345zM500 64h-1l1 557l109 -221l244 -35l-176 -173l41 -243z" />
    <glyph glyph-name="uniE61C" unicode="&#xe61c;" horiz-adv-x="1037" 
d="M295 243q-4 -1 -9 -4t-14.5 -9t-18 -13t-17 -17.5t-13 -21.5t-4 -25t7.5 -28q14 -30 52.5 -43.5t82 -8.5t77.5 24q57 31 89 74q-83 43 -192 68q-20 6 -41 4zM643 190q16 -5 53.5 -20.5t74 -30.5t80 -30.5t74.5 -22.5q48 97 48 202q0 91 -36 174.5t-97 144t-145.5 96
t-177 35.5t-177 -35.5t-145.5 -96t-97 -144t-36 -174.5t36 -174.5t97 -144t145.5 -96t177.5 -35.5q71 0 137 20.5t121 58.5t97 90q-25 11 -95 43t-125.5 57.5t-57.5 27.5q-76 -77 -120 -93q-86 -32 -164 -15q11 -2 33 -5q-17 1 -35.5 4t-48.5 14t-51.5 26.5t-36 45
t-11.5 67.5q3 44 32.5 70t72.5 31.5t95 -0.5t99.5 -20t86.5 -33q10 -3 19 -8q27 33 42 60q8 15 13.5 31.5t7.5 24.5l1 9h-277l-1 44h136v75h-191l-2 41h191v75h102v-73h203v-46h-203v-68h155q-1 -2 -2 -7t-6 -19t-10 -27.5t-12.5 -31.5t-14.5 -33q-8 -16 -17 -31t-17 -25.5
t-12.5 -16.5t-8.5 -11z" />
    <glyph glyph-name="uniE61D" unicode="&#xe61d;" 
d="M459 198h101l10 101h-96zM512 748q-41 0 -80.5 -7t-76 -21t-70 -33t-62.5 -44t-54 -54t-44 -62.5t-33 -70t-21 -76t-7 -80.5q0 -91 35.5 -174t95.5 -143t143 -95t174 -35q61 0 119 16t107 44.5t90.5 70t70 90.5t44.5 107t16 119q0 73 -22.5 141.5t-64 123.5t-96.5 96.5
t-123 64t-141 22.5zM286 75h-96l62 315h-48l8 56l8 2l14 7t15 9q11 11 72 96h96l-72 -104zM425 121q-43 35 -44 95t39.5 109.5t99.5 59.5t102 -25.5t44 -95.5t-39.5 -109t-99.5 -59t-102 25zM822 451l-29 -3q-24 -221 -51 -282q-22 -52 -81 -89t-148 -37q5 2 14.5 6t34.5 18
t46.5 30t44.5 42.5t35.5 55t13 67.5t-17.5 80l24 104h-318q4 4 9 11.5t14.5 24t11.5 25.5h296l8 54h93l-8 -51h19z" />
    <glyph glyph-name="uniE61E" unicode="&#xe61e;" 
d="M512 748q-41 0 -80.5 -7t-76 -21t-70 -33t-62.5 -44t-54 -54t-44 -62.5t-33 -70t-21 -76t-7 -80.5q0 -91 35.5 -174t95.5 -143t143 -95t174 -35q61 0 119 16t107 44.5t90.5 70t70 90.5t44.5 107t16 119q0 73 -22.5 141.5t-64 123.5t-96.5 96.5t-123 64t-141 22.5z
M248 549q8 14 23 22t29 8t28.5 -8t23 -22.5t8.5 -30t-8 -29.5t-22 -22.5t-30 -7.5q-16 0 -30 8t-22 22t-8 30q0 5 1 10t3 10zM350 47l-97 -45v227h97v-182zM352 315q-4 -7 -9.5 -12.5t-12.5 -9.5q-5 -3 -10 -4.5t-10 -2.5t-10 -1q-16 0 -30 8t-22 22q-4 7 -6 14.5t-2 15.5
q0 16 8 30t23 22q5 2 9.5 4t9.5 3t10 1q7 0 14.5 -2t14.5 -6q14 -8 23 -22q4 -7 6 -14.5t2 -15.5q0 -16 -8 -30zM481 44l-96 -45v572h409l-32 -67h-281v-460zM498 379v63h94v39h94v-39h100l-29 -63h-71v-56h107l-29 -63h-274v63h102v56h-94zM765 13h-276v63h103v57h-96v63
h96v45h94v-45h103l-29 -63h-74v-57h109z" />
    <glyph glyph-name="uniE61F" unicode="&#xe61f;" 
d="M512 748q-41 0 -80.5 -7t-76 -21t-70 -33t-62.5 -44t-54 -54t-44 -62.5t-33 -70t-21 -76t-7 -80.5q0 -91 35.5 -174t95.5 -143t143 -95t174 -35q61 0 119 16t107 44.5t90.5 70t70 90.5t44.5 107t16 119q0 73 -22.5 141.5t-64 123.5t-96.5 96.5t-123 64t-141 22.5z
M707 189q-36 -47 -71 -74.5t-82 -46.5q-127 -51 -254 29q-58 37 -93.5 108t-17.5 147q8 34 22 62t33 51t43.5 39.5t54.5 26.5t64 13q89 8 156.5 -45t73.5 -122q5 -60 -28 -104.5t-85.5 -60t-104.5 0.5q-17 5 -34.5 16.5t-32 28.5t-20.5 35q-11 39 -5 68.5t19 46.5l13 17
q-8 -17 -8.5 -35t7.5 -35.5t20.5 -30.5t31 -20.5t38.5 -6.5q60 5 77 56q17 47 -16 87q-36 43 -106 39q-20 -1 -38.5 -6.5t-34.5 -14t-29.5 -20t-24 -25.5t-18 -30.5t-10.5 -34.5q-3 -14 -3.5 -27.5t1 -26t4 -24t7 -21.5t9.5 -19.5t10.5 -17.5t11 -14.5t11.5 -12.5
q31 -29 71 -42t78.5 -10.5t71.5 18.5q31 14 58 37q10 9 20 19t19 20.5t17 20.5t18 22t18 21q88 100 208 80l35 -9q-25 1 -46.5 -6.5t-37.5 -18t-34 -30.5t-29 -36t-29 -42t-29 -40z" />
    <glyph glyph-name="uniE620" unicode="&#xe620;" 
d="M810 677q-3 -1 -8 -1.5t-8 -0.5q-11 -1 -15 4.5t-3 17.5q3 34 -5 42t-43 9h-218h-68h-86h-69q-55 -1 -43 -48q5 -18 -2 -24t-24 -2q-31 7 -58 0q-37 -10 -62 -37.5t-31 -65.5t6 -82q21 -68 64 -114t109 -68q23 -7 39.5 -19.5t27.5 -33.5q12 -23 28.5 -41.5t37.5 -33.5
t45 -24h2q47 -17 55 -28.5t8 -60.5q-1 -43 -11 -51q-10 -7 -46 -8q-100 -5 -130 -88q-5 -11 -6.5 -20.5t-0.5 -17t5 -13t10 -9.5t15.5 -6t21.5 -2q80 -1 297 0q31 0 50 3q44 6 32 50q-11 40 -42 67.5t-71 33.5q-23 3 -32.5 4.5t-21 7t-14 7.5t-6 15.5t-4 21.5t-1.5 33
q-2 25 7 37.5t33 17.5q41 8 72.5 32.5t51.5 60.5q10 19 24 32t28.5 21t35.5 16q71 25 113 78.5t56 128.5q13 73 -29 118.5t-116 40.5zM243 357q-57 21 -93 72.5t-37 113.5q0 38 22 64.5t54 27.5q31 1 54.5 -23t27.5 -60q11 -133 13 -167q1 -11 0 -18t-3.5 -11.5t-7.5 -5
t-12 1t-18 5.5zM595 -40q37 -1 61 -24q16 -16 13 -26q-4 -13 -26 -13h-133h-40h-49h-40q-22 1 -26 12t12 27q25 23 57 24h171zM719 648q-28 -154 -27 -275q1 -74 -46.5 -128t-116.5 -59q-80 -5 -136.5 40.5t-63.5 124.5q-2 27 -5.5 78t-6 83t-7.5 76t-11 81q-3 13 2 20.5
t12.5 9.5t20.5 2h176q10 0 23 0.5t25 0.5h24h24h23q12 0 24.5 -0.5t23.5 -0.5q22 0 31.5 -4.5t12.5 -16t-2 -32.5zM909 532q-13 -111 -117 -170q-31 -17 -42 -11t-11 42v11v12v12h-1q10 119 12 128q5 37 32 60t58 17q36 -6 55 -34t14 -67z" />
    <glyph glyph-name="uniE623" unicode="&#xe623;" 
d="M830.5 606.5q-86.5 86.5 -202.5 117t-232 0t-202.5 -117t-117 -202.5t0 -232t117.5 -203q43 -43 96 -73t108.5 -44.5t114 -14.5t114 14.5t108.5 44.5t96 73q86 87 117 203t0 232t-117.5 202.5zM287 231v113h451v-113h-451z" />
    <glyph glyph-name="uniE624" unicode="&#xe624;" 
d="M512 738q-73 0 -142 -23t-124 -64.5t-96.5 -96.5t-64.5 -124t-23 -142t23 -142t64.5 -124t96.5 -96.5t124 -64.5t142 -23q92 0 175 35.5t143.5 96t96 143.5t35.5 175t-35.5 175t-96 143.5t-143.5 96t-175 35.5zM448 89l-190 191l79 79l111 -111l239 238l79 -79z" />
    <glyph glyph-name="uniE625" unicode="&#xe625;" 
d="M512 738q-73 0 -142 -23t-124 -64.5t-96.5 -96.5t-64.5 -124t-23 -142t23 -142t64.5 -124t96.5 -96.5t124 -64.5t142 -23q92 0 175 35.5t143.5 96t96 143.5t35.5 175t-35.5 175t-96 143.5t-143.5 96t-175 35.5zM727 136l-63 -63q-6 -6 -14 -3q-2 0 -3 1l-2 2l-133 133
l-133 -133l-2 -2q-1 -1 -3 -1q-3 -1 -7 -0.5t-7 3.5l-63 63q-6 6 -3 14q1 3 3 5l133 133l-133 133q-2 2 -3 4q-3 9 3 15l63 63q3 3 7 3.5t7 -0.5l3 -2q1 0 2 -1l133 -133l133 133q2 2 4.5 3t5 1t5 -1t4.5 -3l63 -63q6 -6 3 -15q-1 -1 -1.5 -2t-1.5 -2l-133 -133l133 -133
q2 -2 3 -5q3 -8 -3 -14z" />
    <glyph glyph-name="uniE626" unicode="&#xe626;" 
d="M267 691.5q-8 6.5 -13.5 16t-7.5 20t0 20.5t10 19q9 9 16 8t15 -5t20 -9t30 -5q15 0 24.5 9t18 19t18 19t26 9t26 -9t17.5 -19t18 -18.5t28 -8.5q15 0 24 8.5t18 18.5t19.5 19t27 9t26 -9t17.5 -19t17.5 -19t25.5 -9q18 0 29.5 5t19.5 9t15 5t16 -8q8 -9 10 -19t0 -20.5
t-8 -20t-13 -16.5q-8 -6 -24 -23t-33 -34q-19 -21 -41 -44h-146h-148q-23 23 -41 44q-17 17 -33 34t-24 23.5zM689 545q75 -42 134 -100q24 -26 48.5 -57t43 -68.5t30.5 -81t12 -93.5q0 -84 -25.5 -149.5t-80 -111.5t-138 -70.5t-200.5 -24.5q-118 0 -202 24.5t-138.5 70.5
t-80 111.5t-25.5 149.5q0 50 11.5 93.5t30.5 81t42.5 68.5t48.5 57q59 58 135 100h354zM734 234h-123l78 105l-36 27l-79 -106l35 -26h-151l37 27l-79 107l-37 -27l79 -107h-123v-44h178v-89h-178v-45h178v-90h43v90h178v45h-178v89h178v44z" />
    <glyph glyph-name="uniE628" unicode="&#xe628;" horiz-adv-x="1000" 
d="M722 60q18 9 30 18q3 2 5.5 4t4.5 4l2 4q2 2 3 4q7 12 5 29.5t-12 40.5q-7 16 -14.5 28t-16 20.5t-16.5 13.5q-10 6 -24 4q-6 -2 -16.5 -6t-24.5 -11q32 -30 50 -68q10 -20 16 -41t8 -44zM466 473q8 8 14 13.5t11 10.5q9 10 12 16q5 9 1.5 22t-15 30.5t-26 31t-31.5 23.5
q-19 12 -36 8q-8 -2 -19.5 -9.5t-26.5 -19.5q41 -24 71 -57q30 -32 45 -69zM690 39q7 5 9 9q5 8 0 31q-5 24 -16 51q-11 23 -28 45q-8 11 -14 17.5t-9 7.5q-3 2 -22 -1t-32 5q-19 11 -41 36q-23 27 -53 69q-16 25 -27 43t-16 30q-10 24 -7 41q0 2 1 5.5t3 7.5q11 26 -1 50
q-13 22 -39 48q-24 26 -46 38q-17 10 -26 8q-9 -1 -19 -18q-7 -14 -12.5 -26t-8.5 -22q-6 -22 -4 -35q1 -9 6 -24.5t15 -37.5q18 -45 46 -98q25 -48 55.5 -92.5t65.5 -85.5q71 -83 116 -109q8 -5 20 -7q6 -1 43 5.5t41 8.5zM514 -118q-89 0 -169.5 34.5t-139 93t-93 139.5
t-34.5 169.5t34.5 169.5t93 139.5t139 93t169.5 34.5t170 -34.5t139.5 -93t93 -139.5t34.5 -170q0 -51 -11.5 -100t-33 -92t-51.5 -81t-68 -67.5t-81 -51t-92 -33t-100 -11.5zM514 697q-77 0 -147 -30t-120.5 -81t-80.5 -121t-30 -147q0 -102 50.5 -189.5t138 -138
t190 -50.5t189.5 50.5t138 138t51 189.5q0 62 -19.5 119.5t-54.5 104t-81.5 81.5t-104 54.5t-119.5 19.5z" />
    <glyph glyph-name="uniE62A" unicode="&#xe62a;" 
d="M175 195q9 0 20 2q-6 18 -10.5 35.5t-7 36.5t-2.5 38q0 15 1.5 29t4 28t6 27t8.5 27h-1q35 100 122 163t196 63t196 -63t122 -163h-1q10 -28 15 -55.5t5 -55.5q0 -53 -20 -110q5 -1 10 -1.5t10 -0.5q47 0 79.5 33t32.5 79q0 35 -19.5 63.5t-50.5 40.5q-23 83 -77.5 149
t-133.5 103t-168 37q-134 0 -239 -81t-140 -208q-15 -6 -28 -16.5t-22.5 -23.5t-14.5 -29.5t-5 -34.5q0 -30 15 -56t40.5 -41t56.5 -15zM793 139q0 2 2 23v145h-2q0 117 -82.5 199t-198.5 82q-57 0 -109 -22t-89.5 -60t-60 -90t-22.5 -109v-145q2 -21 2 -23q0 -85 -47 -155
t-122 -103q53 -23 111 -23q99 0 178 66q65 -66 159 -66q95 0 160 66q79 -66 179 -66q29 0 57 6t54 17q-76 33 -122.5 103t-46.5 155zM691 81q-29 -30 -69 -44q-3 19 -18.5 32.5t-35.5 13.5q-23 0 -39.5 -16.5t-16.5 -40t16.5 -40t39.5 -16.5q31 0 65 11q-55 -67 -121 -67
q-119 1 -189 192q-28 76 -38 147q9 3 23 9.5t51 25.5t66.5 38t56.5 45.5t34 49.5l-16 -76q-22 -81 -48 -91q6 2 17 6t38.5 16.5t50 25.5t42.5 31.5t24 35.5q1 -5 2 -13t8.5 -29t18.5 -36.5t33.5 -27t51.5 -9.5q-12 -88 -47 -173zM400 251q-16 0 -28.5 -7.5t-20 -20.5
t-7.5 -28h112q0 8 -2 15t-5.5 13.5t-9 11.5t-11.5 8.5t-13.5 5.5t-14.5 2zM624 251q-15 0 -28 -7.5t-20.5 -20.5t-7.5 -28h113q0 11 -4.5 21.5t-12 18t-18 12t-22.5 4.5z" />
    <glyph glyph-name="uniE62F" unicode="&#xe62f;" 
d="M999 354l-111 90l-1 1l-357 291q-18 16 -36 0l-357 -291h-1l-111 -91q-10 -8 -12 -22.5t5.5 -26.5t20 -14t23.5 6l62 51v-481q0 -9 4 -17.5t11 -13t16 -4.5h252q13 0 22 10.5t9 24.5v329h148v-329q0 -14 9 -24.5t22 -10.5h252q9 0 16 4.5t11 13t4 17.5v481l62 -51
q8 -6 18 -6q8 0 14.5 3.5t11.5 10.5q3 6 4.5 13t0.5 13.5t-4 12.5t-8 10zM838 -98h-190v329q0 15 -9 25t-22 10h-210q-6 0 -12 -2.5t-10 -7.5t-6.5 -11.5t-2.5 -13.5v-329h-190v497l326 266l326 -266v-497z" />
    <glyph glyph-name="uniE630" unicode="&#xe630;" 
d="M741 647h-463v55q0 3 1.5 6t4.5 4.5t6 1.5h439q3 0 6 -1.5t4.5 -4.5t1.5 -6v-55zM741 86h-463v528h463v-528zM741 -100q0 -4 -1.5 -6.5t-4.5 -4t-6 -1.5h-439q-5 0 -8.5 3.5t-3.5 8.5v153h463v-153zM729 747h-439q-19 0 -32 -13.5t-13 -31.5v-802q0 -19 13 -32t32 -13
h439q6 0 12 1.5t11 4.5t9 7t7 9t4.5 10.5t1.5 12.5v802q0 12 -6 22.5t-16.5 16.5t-22.5 6zM460 -13h99v-33h-99v33z" />
    <glyph glyph-name="uniE632" unicode="&#xe632;" 
d="M787 393l-3 141q0 35 -23.5 71.5t-66.5 66.5q-87 63 -183 63q-118 0 -209 -70q-25 -20 -44 -42.5t-29 -45.5t-10 -44v-140h-81v-543h726v543h-77zM311 472q0 9 0.5 16.5t2.5 23t8 28.5t14.5 29t24 28t35.5 23t50 17t65 6q52 0 90.5 -15t57 -34t29 -46.5t12.5 -43t2 -32.5
v-79h-391v79zM556 53v-28q0 -14 -15.5 -27.5t-38.5 -13.5q-12 0 -23 4t-18 10t-11 13.5t-4 13.5v28q-24 15 -38 39.5t-14 53.5q0 44 31.5 75.5t75.5 31.5q29 0 54 -14.5t39.5 -39t14.5 -53.5t-14.5 -53.5t-38.5 -39.5z" />
    <glyph glyph-name="uniE633" unicode="&#xe633;" 
d="M854 45q-36 56 -89 98t-117 64l-4 2l-6 2q-2 1 -4.5 1.5t-5 1.5t-5.5 1q40 19 71 51q37 36 56.5 83t19.5 98q0 35 -9 67.5t-25.5 61.5t-41.5 53q-36 37 -83 56t-98.5 19t-98.5 -19t-83 -56q-75 -75 -75 -181.5t75 -181.5q31 -31 70 -50q-13 -4 -26 -9q-32 -11 -61.5 -27
t-55.5 -38q-53 -41 -89 -98q-37 -57 -54 -124l40 -9q30 121 128 199q48 38 106 59q59 21 122.5 21t122.5 -21q58 -20 106 -58q31 -26 56.5 -57t43.5 -67.5t28 -75.5l40 10q-17 66 -54 124zM297 447q0 90 63 153t152.5 63t153 -63t63.5 -152.5t-63.5 -153t-152.5 -63.5
q-22 0 -43.5 4.5t-41 12.5t-37 20t-32 26.5t-26 32t-20 37t-12.5 40.5t-4 43z" />
    <glyph glyph-name="uniE637" unicode="&#xe637;" 
d="M797 527l-377 -377l-193 194l-52 -52l220 -219q11 -10 25 -11q3 0 5 0.5t4.5 1t4.5 1.5t4.5 2t3.5 3l4 3l403 402zM512 812q-139 0 -257 -68.5t-186.5 -186.5t-68.5 -257t68.5 -257t186.5 -186.5t257 -68.5t257 68.5t186.5 186.5t68.5 257t-68.5 257t-186.5 186.5
t-257 68.5zM512 -175q-97 0 -185 37.5t-151.5 101t-101 151.5t-37.5 185q0 65 17 126.5t47.5 113.5t74.5 96t96 74.5t113.5 47.5t126.5 17q97 0 185 -37.5t151.5 -101t101 -151.5t37.5 -185t-37.5 -185t-101 -151.5t-151.5 -101t-185 -37.5z" />
    <glyph glyph-name="uniE639" unicode="&#xe639;" 
d="M186 484l-40 -39l366 -366l366 366l-40 39l-326 -326z" />
    <glyph glyph-name="uniE63A" unicode="&#xe63a;" 
d="M838 79l40 40l-366 365l-366 -365l40 -40l326 326z" />
    <glyph glyph-name="uniE63C" unicode="&#xe63c;" 
d="M38 299h103l4 28h-86l4 31h86l4 27l-82 -3q-1 13 -3 32q127 1 194 6l6 -30l-80 -4l-4 -28h76l-4 -31h-76l-4 -28h92l-4 -31h-93l-4 -28q-1 -12 -7 -20q-2 -5 -6 -8t-8 -5q-9 -5 -15 -6t-50 -2q-1 20 -3 35q24 -1 37 -1q16 0 19 17l2 18h-102zM274 288q23 30 37 66h-26
l4 31h27l6 42h30l-5 -42h27l-5 -31h-27l-3 -22q14 -8 30 -19l-19 -26l-16 12l-14 -100h-30l11 81q-5 -8 -10.5 -16.5t-11.5 -16.5q-2 15 -5 41zM483 290q5 -3 10 -5t11 -5q-9 -48 -12.5 -58.5t-10.5 -14.5t-17 -4h-18q-22 0 -18 28l21 152h-33l-9 -65q-7 -51 -19 -74
q-2 -4 -4 -7.5t-5 -7.5l-6 -8q-3 -4 -6 -7.5t-7 -7.5l-8 -8q-9 13 -20 28q22 20 30.5 41t15.5 71l11 78h98l-25 -176q-1 -7 4 -7l5 1q1 2 4 15.5t8 40.5zM568 380h23l-11 -81q-2 -12 -6 -22q16 -20 40 -51l-25 -21q-5 10 -12 21t-15 22q-16 -28 -47 -50q-5 10 -13 24
q48 28 55 78zM656 427l28 -4q-6 -14 -13 -27h79l-13 -90l-9 -62q-3 -19 -12 -29t-20 -12t-53 -2q0 14 -3 31q33 -1 40 -1q18 0 20 19l1 5l-18 -6l-2 12q-26 -2 -42 -4t-22 -4l-7 19h-24l17 118h-44l-17 -119h-24l21 146h92l-7 -51q18 27 32 61zM694 328q6 -21 11 -47
q2 17 5 38.5t7 47.5h-61q-12 -21 -26 -37q-5 7 -10 13l-8 -60q16 12 45 72l25 -9q-21 -38 -36 -61l30 2q-2 9 -3.5 17t-3.5 15zM758 321h51l2 16h31l-2 -16h46l-4 -28h-46l-1 -7q12 -7 23.5 -14.5t21.5 -14.5l-22 -26q-4 3 -7.5 6.5t-7 6t-7 5.5t-6.5 6l-8 -58h-31l10 65
q-6 -7 -11.5 -13.5t-11 -12.5t-11 -11.5t-11.5 -10.5l-8 14l-6 13q31 26 53 52h-41zM786 377q4 -8 8 -16.5t8 -18.5l-26 -12q-3 10 -6.5 19t-6.5 17zM771 411l40 2q20 1 40.5 2.5t40.5 3.5v-27q-65 -6 -119 -9q0 13 -2 28zM829 386q9 -17 15 -32l-25 -11q-5 14 -14 33z
M873 388l23 -10q-8 -11 -16 -22.5t-17 -23.5l-21 12q8 10 15.5 21t15.5 23zM958 290l21 -20q-47 -47 -99 -74l-8 14q-4 7 -9 14q52 24 95 66zM970 426l20 -19q-37 -35 -78 -60q-8 14 -18 27q42 20 76 52zM966 360l20 -20q-41 -39 -83 -65q-7 12 -18 26q43 21 81 59z" />
    <glyph glyph-name="uniE63D" unicode="&#xe63d;" 
d="M77 377h78l2 14h-96l4 26h222l-4 -26h-94l-2 -14h78l-17 -116h-31l2 13h-47q-4 -19 -13 -31q40 -10 106 -11l-23 -32q-75 3 -112 19q-27 -13 -79 -22q-6 12 -17 30q42 4 65 11q-15 11 -25 24l18 12h-29zM103 337h46l2 15h-46zM97 299h47l2 15h-46zM140 274h-41
q6 -6 13.5 -11t16.5 -10q7 8 11 21zM230 352h-46l-3 -15h47zM223 299l2 15h-47l-2 -15h47zM375 201q0 5 -0.5 10t-1 9.5t-1 8.5t-0.5 8q14 -1 24 -1.5t16 -0.5q7 0 11.5 1.5t7.5 4.5t4.5 6.5t5.5 25.5t6 30h-74q-16 -66 -81 -107q-4 8 -20 31q28 17 44 38q8 10 13.5 20.5
t8 20.5t5.5 24.5t5 33.5h-52l4 30h97l-6 24l38 8q5 -19 7 -32h85l-4 -30h-133q-1 -3 -1 -6t-1 -6v-6l-2 -6t-1 -6h109l-4 -20l-4 -22q-2 -10 -4 -21q-6 -33 -9 -40.5t-9 -14.5t-13 -10l-6 -2q-3 -1 -7.5 -1.5t-9.5 -0.5q-15 -1 -47 -1zM577 426l30 -7q-10 -26 -24 -51
l-24 -171h-29l16 110q-10 -14 -21 -28q0 36 -1 45q34 49 53 102zM591 266l12 8h-15l14 103h60l2 15h-59l4 26h155l-4 -26h-66l-2 -15h59l-16 -116h-28l2 13h-32q-5 -19 -12 -31q30 -12 75 -14q-12 -19 -20 -30q-46 5 -78 21q-11 -6 -25.5 -12t-34.5 -11q-5 10 -14 26
q31 7 48 14l-10 9q-4 5 -7.5 10t-7.5 10zM625 336h31l2 17h-31zM620 299h31l2 15h-31zM639 256q4 7 7 18h-27q8 -10 20 -18zM720 353h-32l-2 -17h31zM712 299l2 15h-31l-2 -15h31z" />
    <glyph glyph-name="uniE63F" unicode="&#xe63f;" 
d="M510 747q-91 0 -173.5 -35t-142.5 -95t-95 -142.5t-35 -173t35 -173.5t95 -142.5t142.5 -95t173 -35.5t173.5 35.5t142.5 95t95 142.5t35.5 173q0 52 -12 102.5t-34 94t-52.5 82.5t-69 69.5t-82.5 52.5t-94 33.5t-102 11.5zM564 28h-108v108h108v-108zM564 244h-108v323
h108v-323z" />
    <glyph glyph-name="uniE640" unicode="&#xe640;" 
d="M523 527h-22q-6 0 -12 -3.5t-9 -9t-3 -12.5v-273q0 -10 7 -17.5t17 -7.5h22q11 0 18 7.5t7 17.5v273q0 7 -3.5 12.5t-9 9t-12.5 3.5zM512 777q-97 0 -185 -38t-152 -102t-102 -152t-38 -185t38 -185t102 -152t152 -102t185 -38t185.5 38t152 102t101.5 152t38 185
q0 56 -12.5 109.5t-36 100.5t-56.5 88t-74 74t-88 56.5t-100.5 36t-109.5 12.5zM508 -117q-113 0 -208.5 55.5t-151 151t-55.5 208t55.5 208t151 151t208.5 55.5q67 0 130.5 -21t114.5 -59t89.5 -89t59 -114.5t20.5 -130.5q0 -85 -32.5 -161.5t-88 -132.5t-132.5 -88.5
t-161 -32.5zM522 118h-21q-6 0 -12 -3.5t-9 -9t-3 -12.5v-26q0 -10 7 -17.5t17 -7.5h21q10 0 17.5 7.5t7.5 17.5v26q0 10 -7.5 17.5t-17.5 7.5z" />
    <glyph glyph-name="uniE641" unicode="&#xe641;" 
d="M863 -62h-702q-40 0 -68.5 28t-28.5 68v337q0 40 28.5 68.5t68.5 28.5h702q26 0 48.5 -13t35.5 -35.5t13 -48.5v-337q0 -40 -28.5 -68t-68.5 -28zM161 428q-16 0 -29 -7.5t-20.5 -21t-7.5 -28.5v-337q0 -23 16.5 -40t40.5 -17h702q24 0 40.5 17t16.5 40v337
q0 24 -16.5 40.5t-40.5 16.5h-702zM182 146q18 -26 46 -37q26 -11 47.5 -2.5t31.5 32.5q9 24 -1 44q-6 10 -16.5 18t-25.5 14q-5 2 -11 4l-13 5q-8 2 -17 4l51 128l124 -49l-11 -28l-95 37l-28 -71q13 -4 22 -8q40 -15 54 -44t0 -65q-7 -18 -19 -30.5t-28 -18.5
q-34 -13 -75 3q-18 7 -30 15t-19 17zM392 116q31 -18 65 -12q10 1 17.5 3.5t14 6.5t10.5 9q15 16 12 39q-4 25 -24 35.5t-56 5.5l-23 -3l-4 28l22 3q32 4 46.5 18t11.5 38q-8 43 -56 38q-27 -4 -50 -27l-4 32q8 7 17 11.5t19.5 8t22.5 4.5q34 5 57 -10q12 -8 19 -19t9 -25
q7 -53 -45 -75v-1q30 1 49 -14t23 -41q1 -7 1 -14t-1.5 -13.5t-3.5 -12.5t-5.5 -11.5t-8.5 -10.5q-23 -26 -66 -32q-39 -5 -64 6zM706 344l-106 -259h-36l101 241h-135v30h176v-12zM846 188l-32 -14l28 -64l-30 -14l-28 65l-116 -51l-9 20l38 212l37 16l69 -159l32 14z
M773 186l-46 104l-10 25h-1v-9q0 -6 -1 -14l-26 -143z" />
    <glyph glyph-name="uniE645" unicode="&#xe645;" 
d="M517 759q95 0 179 -36.5t146 -98.5t98.5 -146t36.5 -179t-36.5 -179t-98.5 -146t-146 -98.5t-179 -36.5t-179 36.5t-146 98.5t-98.5 146t-36.5 179t36.5 179t98.5 146t146 98.5t179 36.5zM663.5 551q-15.5 0 -28 -6.5t-23 -18.5t-16 -28t-5.5 -33q0 -36 21.5 -61.5
t51 -25.5t51 25.5t21.5 61.5q0 17 -5.5 33t-15.5 28t-23 18.5t-28.5 6.5zM373.5 551q-29.5 0 -50.5 -25t-21 -61t21 -61.5t50.5 -25.5t50 25.5t20.5 61.5t-20.5 61t-50 25zM520 210q-51 0 -97 -10t-83 -27.5t-62.5 -41.5t-35.5 -51q-1 -1 -1 -2q-1 -3 -1 -9t2.5 -12t7 -11
t12.5 -6q26 28 63 50q31 20 79 35.5t114 15.5q68 0 117 -15.5t82 -35.5q38 -22 63 -50q18 5 20.5 19t0.5 19t-3 7t-1 3q-27 55 -100.5 88.5t-176.5 33.5z" />
    <glyph glyph-name="uniE646" unicode="&#xe646;" 
d="M516 749q-94 0 -179 -36.5t-146.5 -99t-98 -148.5t-36.5 -181t36.5 -181t98 -148.5t146.5 -99t179 -36.5t179 36.5t146.5 99t98 148.5t36.5 181q0 76 -23.5 147t-66 128t-99 100t-126.5 66.5t-145 23.5zM574 -2h-116v409h116v-409zM576 490q-4 -10 -12.5 -17.5
t-20.5 -11.5t-27 -4t-27 4t-20 11.5t-13 18t-5 22.5q0 25 17.5 41t47.5 16q15 0 27 -4.5t20 -11.5q4 -4 7.5 -8.5t5.5 -9.5q5 -11 5 -23t-5 -23z" />
    <glyph glyph-name="uniE64C" unicode="&#xe64c;" 
d="M851 750h-672q-9 0 -16 -15q-1 -2 -2 -3l-159 -283q0 -17 18 -35q465 -551 473 -559q6 -6 13 -5.5t12 4.5q2 3 125 143t245 279l122 138q10 19 10 35l-153 283q-10 18 -16 18zM799 486l-294 -459l-278 460h-71v89l216 -1l175 -310l204 310h113v-89h-63h-2zM799 445z" />
    <glyph glyph-name="uniE64D" unicode="&#xe64d;" 
d="M575 372v22h-48v-30h37q6 -1 9 1t2 7zM497 364v30h-47v-30h47zM959 289q0 91 -35.5 173.5t-95 142.5t-142 95t-173.5 35t-173.5 -35t-142.5 -95t-95 -142.5t-35 -173.5t35 -173.5t95 -142.5t142.5 -95t173.5 -35q72 0 140.5 22.5t123 63.5t96 96t64 123t22.5 141zM681 83
h-34v-85h-34v85h-87v-85h-34v85h-35v28h224v-28zM372 152h-27v107h28l50 -70v70h27v-107h-29l-49 70v-70zM289 431h27l17 -42l18 53h-61v23h92v-21l-33 -90l15 -36q0 -3 2 -4t5 -1h11v-20h-25q-11 0 -14 10l-7 16l-7 -16q-4 -10 -15 -10h-22v20h6q7 -1 8 5l14 39zM446 292
q-32 -3 -27 21v102h126l21 24h-107l-8 -8q-3 -5 -14 -4h-18v22h9q1 0 3 1t4 3l14 15h34l-6 -8h127v-21l-22 -24h23v-49q1 -13 -5 -19t-20 -4h-130v-24q-2 -6 4 -6h2h150v-21h-160zM473 527h-14l8 21l14 1zM488 549q20 1 40 1q7 0 15 -0.5t17 -1.5q-6 -2 -12 -2h-23l-16 -39
h-38zM638 366v22h23v52h-23v21h70v-20h-20v-54h19v-21h-19v-55h19v-20h-69v19h23v56h-23zM689 204q0 -31 -21.5 -53t-52.5 -22t-53 22t-22 53t22 52.5t53 21.5q20 0 37 -10t27 -27t10 -37zM526 149h-37v114h36zM833 70.5q0 -30.5 -21.5 -52.5t-52.5 -22t-52.5 22t-21.5 53
q0 12 3.5 23t10.5 20.5t16 16t20.5 10.5t23.5 4q31 0 52.5 -22t21.5 -52.5zM788 259h27v-107h-29l-49 70v-70h-27v107h29l49 -71v71zM826 417l-2 -7l-3 -20q0 -1 -0.5 -2.5t-0.5 -2.5q-4 -9 -16 -7h-17v18h5q4 -1 5 5l3 16h26v0zM824 447q0 -10 -6 -14.5t-18 -4.5h-17v-59
h27l5 -53q0 -7 5 -6h5v-20h-15q-6 0 -10 1.5t-6 4.5t-3 8l-5 52h-3v-44q1 -24 -19 -22h-17v20h4q2 0 3 1t1 4v41h-2l-10 -51q-3 -14 -17 -14h-16v20h2q5 1 7 5l10 53h26v58h-42v23h43v15h27v-15h12q5 0 5 5v6h24v-14zM749 397v-18h-18q-15 -2 -16 12l-5 26h26l3 -16
q0 -5 6 -4h4zM745 418h1v-3zM549 606h-1l-7 -17h-7q-4 0 -8 1h-8h-8h-5h-2l18 47h34q18 0 30.5 -13.5t10.5 -32.5q0 -3 -1 -7q-15 2 -30 3v2q1 7 -3.5 12t-12.5 5zM435 585q-4 0 -8 -1h-8q-4 -1 -7.5 -1.5t-7.5 -1.5q-1 5 -1 10q2 19 16 32.5t33 13.5h24l-12 -31h-6
q-8 0 -14.5 -5t-8.5 -12v-4zM498 679h41l-6 -14h-27l-29 -76q-7 -1 -14 -1zM509 657h41l-6 -14h-27l-20 -53q-4 -1 -7 -1h-7zM526 582q82 -2 160.5 -24.5t127.5 -67.5q-23 15 -63 28t-82.5 21t-79.5 13t-61 6q-158 -2 -328 -61q43 36 135 62t191 23zM197 293v20h7q2 1 3 2
l17 46l-27 69h25l16 -36l15 47h-57v24h87v-21l-31 -85l17 -42q1 -5 5 -4h10v-20h-23q-10 0 -13 9l-10 23l-9 -23q-4 -10 -13 -9h-19zM297 10h-93v110h32v-88h61v-22zM296 168l-8 -8l-9 -5l-10 -4l-12 -1h-13l-13 2l-8 2l-6 3l-6 5l-4 5l-4 6l-2 6l-2 8l-1 8v64h29v-69l3 -9
l6 -6l7 -4l8 -2l8 2l7 4l5 6l3 9v69h29v-67l-2 -14zM303 66q0 15 6 28.5t16 23.5t23.5 16t29.5 6q20 0 37 -10t27 -27t10 -37t-10 -37.5t-27 -27.5t-37 -10q-31 0 -53 22t-22 53z" />
    <glyph glyph-name="uniE64E" unicode="&#xe64e;" 
d="M291 53q0 1 -1 1v1l-4 4l-2 1l-1 2v-1q-1 0 -1 -1l2 -2l3 -3l3 -3l1 1v0zM299 72l-4 4h-1v-1l6 -6v-1h1l1 1v0zM625 -8l-3 9q-2 0 -7 -2l-6 -3q0 -4 3 -11q1 -3 2 -5t1 -3q2 1 7 2q2 1 3.5 2t2.5 1q0 3 -3 10zM390 522q1 2 1 6l1 10l-23 -6l-2 -17l19 5q3 0 4 2zM741 78
q-1 -1 -2 -1.5t-3 -2.5l-5 -5q1 -3 6 -10q2 -2 3 -3.5t2 -2.5q2 1 6 5q4 3 5 4l-6 9q-4 5 -6 7zM483 -20v2h-2q-1 1 -2 1t-3 0.5t-4 0.5q0 -1 -0.5 -2.5t-0.5 -2.5q2 -1 4 -1h3l1 -1h3q0 1 1 3zM959 289q0 91 -35.5 173.5t-95 142.5t-142 95t-173.5 35t-173.5 -35
t-142.5 -95t-95 -142.5t-35 -173.5t35 -173.5t95 -142.5t142.5 -95t173.5 -35q72 0 140.5 22.5t123 63.5t96 96t64 123t22.5 141zM499 -41q0 -1 -1 -2l-2 -15l-18 2l1 14v1l-2 1q-4 1 -8 1q0 -2 -0.5 -5.5t-1.5 -6.5v-3l-19 3l7 50v5l29 -4q10 -2 14 -6t4 -11v-3v-2
q-1 -8 -4 -12h-1q2 -3 2 -7zM408 110q-15 0 -27.5 8t-20 21.5t-7.5 29.5q0 24 16 41.5t39 17.5q9 0 17 -3t15 -8.5t12 -13t7.5 -16t2.5 -18.5q0 -24 -16 -41.5t-38 -17.5zM414 18l41 -14l-5 -17q-17 6 -23 8v-1q3 -1 8.5 -3t9.5 -3l4 -1l-5 -16q-16 5 -21 7q-1 -1 -1 -3
l23 -7l-5 -17l-41 13l14 49zM548 -1l19 4q5 -29 6 -37q3 0 8.5 1.5t10.5 2.5h4l3 -17l-41 -9zM772 62q-1 -4 -4.5 -8.5t-9.5 -10.5q-6 -5 -11 -7.5t-8 -1.5q-8 0 -17 13q-4 5 -6 9q-7 -5 -11 -8l19 -31l-16 -12q-1 3 -4 7.5t-8 13t-7 11.5q-1 -1 -3 -2l-2 -2l-4 -2h1l-3 -2
h-1q-1 -1 -4.5 -3t-4.5 -3q1 -3 5 -11l7 -15l4 -7l-17 -9q-13 26 -16 33q-6 -3 -11 -6q1 -2 1.5 -4t1.5 -5q6 -17 2.5 -24t-18.5 -13q-15 -5 -21.5 -2t-11.5 18q-3 9 -3.5 15t0.5 10q4 7 19 13q15 5 22 2l2 -2l-3 7l39 22l38 27l4 -8v5q0 4 3.5 8.5t10.5 10.5q6 5 10.5 7.5
t8.5 2.5q3 -1 5.5 -2.5t5.5 -4.5t6 -7q5 -7 7.5 -12.5t2.5 -9.5zM581 212h55l38 -100l-51 -4zM749 341l51 -1v9q-9 1 -21 1.5t-20 0.5l-7 -1v24q9 0 23.5 -0.5t43 -2.5t40.5 -5l-2 -20q-1 0 -2 0.5t-3.5 0.5t-5.5 1h-6q-3 1 -6 1h-4h-4v-11q4 -1 9 -1.5t14.5 -1.5t11.5 -2
l-1 -20l-30 3l-1 -35l-27 -12l-1 49h-52v23zM864 276h-19l-9 35l18 -1zM794 313l-11 -40h-33l15 40h29zM742 187l7 -6l22 61h-20v23l113 2v-16l-9 -15h9l-3 -29l-19 -23l-25 -5v20l26 5v11l-12 -1v17l9 15l-38 -3l-24 -67h-12l6 -8l70 10q19 5 24 9l-7 -25q-4 -2 -12.5 -5
t-36.5 -8t-57 -6l-14 8l-33 -20l4 142h-10v32h42q5 -53 0 -118zM717 377q10 0 17.5 -7.5t7.5 -19.5q0 -7 -3.5 -13t-9 -9.5t-12.5 -3.5q-10 0 -17.5 7.5t-7.5 18.5q0 3 0.5 5.5t1.5 5t2.5 5t3 4t3.5 3t4.5 2.5t5 1.5t4.5 0.5zM433 278h71v78h53v-78h119l-18 -43h-100v-92
l-38 -42h-54v39h40v96h-126q0 1 -0.5 3t-2 10t-3 17.5t-2 24.5t-0.5 31q0 12 0.5 23t1 20t1.5 16.5t2 13t1.5 9t1.5 5.5v2q3 0 7.5 1t20 2.5t32 2.5t41 1.5t49 -0.5t55.5 -4t61 -9l-11 -35q-5 0 -13.5 1t-34 3t-49 3t-53 -0.5t-51.5 -5.5q-1 -2 -2 -6t-3 -16t-2 -25
q0 -8 0.5 -16t1.5 -13t2 -9t1 -6zM426 564l1 19l23 44l21 4l-25 -48l8 2l9 16l21 5l-33 -62l25 6l-1 -17l-50 -11l1 14l19 32zM558 603v-16l-21 -43l3 -6q2 -3 3 -3h5l13 4v-19l-16 -4h-5h-5q-3 -1 -6 3l-4 6l-5 -7q-2 -3 -4.5 -5.5t-7.5 -3.5l-8 -2l1 17l2 1q4 1 6 4l7 12
l-13 27l-6 -44q-1 -11 -3 -15t-11 -5l-7 -2v16l2 1v1h2l1 7l10 87l18 3l-6 -43l15 3l10 -17l10 23l-19 -4v16l17 33l-55 -11v16l77 15v-13l-19 -36zM473 517l-1 -17l-50 -12l1 18zM356 564q2 0 3 1.5t1 3.5l5 23l-9 -2l2 15l54 11l-2 -39q0 -3 -1 -7.5t-4 -7.5q-1 -1 -4 -2
t-7 -2l-9 -2l1 15h4l2 1l1 2v4l2 20l-13 -3l-6 -30q-1 -3 -2 -5.5t-3 -5.5q-1 0 -2 -1t-2.5 -1.5t-3.5 -0.5l-11 -3l2 15zM410 557l-2 -30q0 -9 -5 -14q-1 -2 -3 -3.5t-4.5 -2.5t-5.5 -2l-41 -10l4 49zM279 471h1q1 0 1.5 0.5t0.5 1.5l1 3q1 2 1 3l4 42l18 4l-4 -35v-2v-1
l1 -1q2 -2 3 -2h5l5 48l-30 -7l1 16l22 5l2 25l-21 -4l2 15l21 4l1 12l18 4l-1 -12l22 5l-2 -15l-21 -5l-3 -25l23 5l-2 -16l-14 -3l-2 -12l16 3l-2 -16l-15 -3l-2 -24l83 19l-1 -18l-94 -21q-5 -1 -9 -0.5t-6 0.5l-2 2l-4 -5q-5 -4 -11 -5l-8 -2zM173 273q-2 0 -4 1t-4 3.5
t-3 5.5t-2 6.5t-1 7.5q-1 7 0 13t4 9.5t6 4.5q2 0 4.5 -2t4.5 -5t3.5 -7.5t1.5 -10.5v-7q0 -4 -1 -7.5t-2.5 -6t-3 -4t-3.5 -1.5zM224 150l-34 12q11 60 32 126l-35 -3q5 10 -1 30l47 5q12 36 26 63l40 3q-11 -25 -26 -64q13 1 32 1.5t32 0.5l14 1l-15 -35q-9 1 -24 1
t-30 -1l-14 -1q29 -69 88 -155l-47 5q-4 4 -60 110q-16 -51 -25 -99zM292 32q-2 1 -4.5 2t-5.5 3.5t-7 5.5q-10 9 -11 15q-3 7 4 15l4 6l3 -3v1q0 5 5 12q6 8 14 7l4 -2q2 -1 5 -3t6.5 -5t5.5 -5.5t3.5 -4.5t2.5 -4v-4v-3q0 -2 -1 -4t-3 -4l-4 -6l-3 2l1 -1q0 -5 -5 -11
q-7 -9 -14 -9zM339 -1q-6 0 -18 8t-14 14q-2 4 -1 8t4 9l18 31l16 -11l-18 -31l-1 -1q1 -2 4.5 -4.5t5.5 -2.5q1 0 1 2l18 30l16 -11l-18 -30q-3 -5 -6 -8t-7 -3zM370 34l2 5l24 -12q11 -6 13 -12q3 -7 -1.5 -17t-10.5 -12t-17 3l-2 1q-2 1 -5 3l-6 -14l-17 9zM407.5 209
q-15.5 0 -26.5 -11.5t-11 -28.5q0 -11 5 -20.5t14 -14.5t19 -5q15 0 26 11.5t11 28.5t-11 28.5t-26.5 11.5zM408 138q-12 0 -20.5 9t-8.5 22t8.5 22t20.5 9t20.5 -9t8.5 -22t-8.5 -22t-20.5 -9zM389 5q1 0 1 1q1 2 1 3t-1 1.5t-2 0.5q-3 2 -6 3q-1 -2 -1 -2.5t-1 -2.5l5 -3
q3 -1 4 -1z" />
    <glyph glyph-name="uniE651" unicode="&#xe651;" 
d="M959 405h-334l125 125q-98 98 -236.5 98t-236.5 -98q-47 -47 -72.5 -108t-25.5 -128q0 -139 98 -237t236 -98q67 0 128 25.5t109 72.5q7 8 15 17l84 -74q-63 -71 -150 -111.5t-186 -40.5q-90 0 -172.5 35.5t-142.5 95t-95 142t-35 173t35 173.5t95 142.5t142.5 95
t173 35.5t172 -34.5t143.5 -96.5l130 131v-335v0z" />
    <glyph glyph-name="uniE659" unicode="&#xe659;" 
d="M512 748q-73 0 -141.5 -22.5t-123.5 -64t-96.5 -96.5t-64 -123.5t-22.5 -141.5t22.5 -141.5t64 -123.5t96.5 -96.5t123.5 -64t141.5 -22.5q91 0 174 35.5t143 95.5t95.5 143t35.5 174q0 52 -12 102.5t-34 94.5t-52.5 83t-69.5 69.5t-83 52.5t-94.5 34t-102.5 12zM698 481
h-230l-37 -122l6 4q3 2 6 3l6 4l6 2q3 2 5.5 3t5 2.5t5.5 2.5q28 10 65 10q66 0 108 -42q50 -50 37 -140q-10 -77 -58 -131q-64 -72 -175 -72q-74 0 -119 40q-53 46 -41 126h111q-1 -36 15.5 -56.5t52.5 -20.5q39 0 65.5 29.5t33.5 76.5q6 41 -9 69q-18 32 -60 32
q-22 0 -35 -5q-27 -10 -45 -36l-99 5l83 310h310z" />
    <glyph glyph-name="uniE65A" unicode="&#xe65a;" 
d="M512 748q-73 0 -141.5 -22.5t-123.5 -64t-96.5 -96.5t-64 -123.5t-22.5 -141.5t22.5 -141.5t64 -123.5t96.5 -96.5t123.5 -64t141.5 -22.5q91 0 174 35.5t143 95.5t95.5 143t35.5 174q0 52 -12 102.5t-34 94.5t-52.5 83t-69.5 69.5t-83 52.5t-94.5 34t-102.5 12zM542 20
h-111l55 389h-135l11 78h16q73 0 114 32q33 27 38 66h92z" />
    <glyph glyph-name="uniE65B" unicode="&#xe65b;" 
d="M512 748q-73 0 -141.5 -22.5t-123.5 -64t-96.5 -96.5t-64 -123.5t-22.5 -141.5t22.5 -141.5t64 -123.5t96.5 -96.5t123.5 -64t141.5 -22.5q91 0 174 35.5t143 95.5t95.5 143t35.5 174q0 52 -12 102.5t-34 94.5t-52.5 83t-69.5 69.5t-83 52.5t-94.5 34t-102.5 12zM722 407
q-9 -65 -54 -114l-17 -17q-9 -9 -20.5 -17.5t-24.5 -17.5t-27 -18q-13 -8 -26 -16.5t-25.5 -16.5t-24.5 -16q-52 -35 -65 -55h244l-14 -99h-385q9 64 34 104q37 60 129 120q76 50 98 68q60 47 67 99q5 31 -10 54q-18 26 -56 26q-51 0 -75 -38q-15 -22 -21 -68h-108
q16 119 96 169q51 31 116 31q84 0 132.5 -47.5t36.5 -130.5z" />
    <glyph glyph-name="uniE65C" unicode="&#xe65c;" 
d="M512 748q-73 0 -141.5 -22.5t-123.5 -64t-96.5 -96.5t-64 -123.5t-22.5 -141.5t22.5 -141.5t64 -123.5t96.5 -96.5t123.5 -64t141.5 -22.5q91 0 174 35.5t143 95.5t95.5 143t35.5 174q0 52 -12 102.5t-34 94.5t-52.5 83t-69.5 69.5t-83 52.5t-94.5 34t-102.5 12zM712 427
q-5 -40 -31 -70q-7 -8 -15 -15t-17 -12.5t-19 -9.5q39 -15 56 -49.5t10 -83.5q-11 -80 -71.5 -131t-146.5 -51q-71 0 -114 28q-72 46 -56 161h109q-6 -38 3 -62q16 -38 65 -38q36 0 61 22q29 26 36 71q7 51 -34 69q-7 3 -15 5t-18.5 3.5t-22.5 2t-26 0.5l12 80h17
q40 0 61 10q38 18 44 66q4 26 -5 44q-15 29 -55 29q-49 0 -72 -39q-13 -20 -17 -54h-104q12 83 64 131q55 51 148 51q69 0 111 -34q54 -42 42 -124z" />
    <glyph glyph-name="uniE65D" unicode="&#xe65d;" 
d="M519 232q14 104 22 154q8 48 14 88l-177 -243zM512 748q-73 0 -141.5 -22.5t-123.5 -64t-96.5 -96.5t-64 -123.5t-22.5 -141.5t22.5 -141.5t64 -123.5t96.5 -96.5t123.5 -64t141.5 -22.5q91 0 174 35.5t143 95.5t95.5 143t35.5 174q0 52 -12 102.5t-34 94.5t-52.5 83
t-69.5 69.5t-83 52.5t-94.5 34t-102.5 12zM681 145h-63l-18 -125h-111l18 125h-223l14 96l255 344h127l-50 -353h63z" />
    <glyph glyph-name="uniE65F" unicode="&#xe65f;" 
d="M511 748q-73 0 -141 -22.5t-123 -64t-96.5 -96.5t-64 -123t-22.5 -141q0 -91 35.5 -174t95.5 -143t142.5 -95.5t173.5 -35.5t174 35.5t143 95.5t95.5 143t35.5 174q0 73 -23 141t-64 123t-96 96.5t-123.5 64t-141.5 22.5zM530 -39q-33 0 -56.5 23t-23.5 56t23.5 56t56 23
t56 -23t23.5 -56q0 -46 -40 -69q-19 -10 -39 -10zM650 302q-38 -35 -44 -78q-3 -20 -13 -34.5t-25 -21t-34 -7.5q-14 0 -26.5 4.5t-21.5 13t-15.5 20t-8.5 24.5q-7 85 54 133q10 9 20 19.5t17.5 22.5t7.5 21q0 12 -3 22t-8 18.5t-12 14t-15.5 9t-17.5 3.5q-25 1 -42 -15.5
t-22 -39.5q-1 -2 -1.5 -4t-2.5 -9t-5 -13.5t-8.5 -14.5t-12 -13.5t-17 -9.5t-22.5 -5q-11 0 -21.5 3.5t-19 10t-14.5 15t-9.5 19t-3.5 21.5q0 60 32.5 108.5t79.5 72.5t97 24q46 0 92.5 -22.5t79.5 -67.5t34 -100q1 -43 -12.5 -74t-56.5 -70zM650 302z" />
    <glyph glyph-name="uniE663" unicode="&#xe663;" 
d="M992 396h-384v384h-192v-384h-384v-192h384v-384h192v384h384v192z" />
  </font>
</defs>
</svg>
