<?xml version="1.0" standalone="no"?>
<!DOCTYPE svg PUBLIC "-//W3C//DTD SVG 1.1//EN" "http://www.w3.org/Graphics/SVG/1.1/DTD/svg11.dtd" >
<svg xmlns="http://www.w3.org/2000/svg">
<metadata>
Created by FontForge 20120731 at Mon Feb  2 10:44:35 2015
 By Ads
</metadata>
<defs>
<font id="iconfont" horiz-adv-x="1024" >
  <font-face 
    font-family="iconfont"
    font-weight="500"
    font-stretch="normal"
    units-per-em="1024"
    panose-1="2 0 6 3 0 0 0 0 0 0"
    ascent="812"
    descent="-212"
    x-height="792"
    bbox="21.6 -184 1006 792"
    underline-thickness="50"
    underline-position="-100"
    unicode-range="U+0078-E660"
  />
<missing-glyph horiz-adv-x="374" 
d="M34 0v682h272v-682h-272zM68 34h204v614h-204v-614z" />
    <glyph glyph-name=".notdef" horiz-adv-x="374" 
d="M34 0v682h272v-682h-272zM68 34h204v614h-204v-614z" />
    <glyph glyph-name=".null" horiz-adv-x="0" 
 />
    <glyph glyph-name="nonmarkingreturn" horiz-adv-x="341" 
 />
    <glyph glyph-name="x" unicode="x" horiz-adv-x="1001" 
d="M281 543q-27 -1 -53 -1h-83q-18 0 -36.5 -6t-32.5 -18.5t-23 -32t-9 -45.5v-76h912v41q0 16 -0.5 30t-0.5 18q0 13 -5 29t-17 29.5t-31.5 22.5t-49.5 9h-133v-97h-438v97zM955 310v-52q0 -23 0.5 -52t0.5 -58t-10.5 -47.5t-26 -30t-33 -16t-31.5 -4.5q-14 -1 -29.5 -0.5
t-29.5 0.5h-32l-45 128h-439l-44 -128h-29h-34q-20 0 -45 1q-25 0 -41 9.5t-25.5 23t-13.5 29.5t-4 30v167h911zM163 247q-12 0 -21 -8.5t-9 -21.5t9 -21.5t21 -8.5q13 0 22 8.5t9 21.5t-9 21.5t-22 8.5zM316 123q-8 -26 -14 -48q-5 -19 -10.5 -37t-7.5 -25t-3 -15t1 -14.5
t9.5 -10.5t21.5 -4h37h67h81h80h64h36q23 0 34 12t2 38q-5 13 -9.5 30.5t-9.5 34.5q-5 19 -11 39h-368zM336 498v228q0 11 2.5 23t10 21.5t20.5 15.5t34 6h188q31 0 51.5 -14.5t20.5 -52.5v-227h-327z" />
    <glyph glyph-name="uniE606" unicode="&#xe606;" 
d="M508 240v217l-136 -217h136zM414 463l116 188h91v-395l16 -16h45v-45l182 -183q95 122 95 276q0 91 -35 174t-95 143t-143 95.5t-174 35.5q-77 0 -147.5 -25t-128.5 -70zM654 133h-33v-152h-113v152h-249v81l120 194l-190 190q-20 -20 -36.5 -42.5t-30.5 -46.5
t-24.5 -50.5t-18 -54t-11.5 -57t-4 -59.5q0 -91 35.5 -174t95.5 -143t143 -95t174 -35q88 0 168 32.5t142 91.5z" />
    <glyph glyph-name="uniE610" unicode="&#xe610;" 
d="M512 -60l-10 4q-84 34 -167 100q-73 59 -115 126q-54 87 -54 182v346h26q63 0 133 8q42 5 74 11.5t50.5 13.5t28.5 12.5t15 10.5l19 19l18 -19q34 -33 168 -48q12 -1 23.5 -2t21.5 -2t20.5 -1.5t19 -1t16.5 -0.5t13.5 -0.5t9.5 -0.5h7h3h26v-346q0 -47 -13.5 -93
t-40.5 -89q-43 -67 -116 -126q-83 -66 -167 -100zM218 646v-294q0 -147 150 -267q67 -53 144 -88q11 5 24.5 11.5t33 18t42.5 27t44 32.5q75 59 112 126t37 140v294q-58 2 -112 8q-65 7 -110 19t-71 30q-53 -35 -181 -49q-31 -3 -60 -5t-53 -3zM246 321l94 56l50 -50l138 88
l30 -39l115 123l-29 29l133 37l-17 -67l-17 -67l-27 26l-163 -174l-39 52l-133 -85l-50 51l-54 -32z" />
    <glyph glyph-name="uniE613" unicode="&#xe613;" 
d="M512 -60l-10 4q-84 34 -167 100q-73 59 -115 126q-54 87 -54 182v346h26q63 0 133 8q42 5 74 11.5t50.5 13.5t28.5 12.5t15 10.5l19 19l18 -19q34 -33 168 -48q12 -1 23.5 -2t21.5 -2t20.5 -1.5t19 -1t16.5 -0.5t13.5 -0.5t9.5 -0.5h7h3h26v-346q0 -47 -13.5 -93
t-40.5 -89q-43 -67 -116 -126q-83 -66 -167 -100zM218 646v-294q0 -147 150 -267q67 -53 144 -88q11 5 24.5 11.5t33 18t42.5 27t44 32.5q75 59 112 126t37 140v294q-58 2 -112 8q-65 7 -110 19t-71 30q-53 -35 -181 -49q-31 -3 -60 -5t-53 -3zM340 286v55h124l-139 227h93
l99 -193l96 193h93l-141 -227h125v-55h-135v-151h-80v151h-135z" />
    <glyph glyph-name="uniE615" unicode="&#xe615;" 
d="M512 -60l-10 4q-84 34 -167 100q-73 59 -115 126q-54 87 -54 182v346h26q63 0 133 8q42 5 74 11.5t50.5 13.5t28.5 12.5t15 10.5l19 19l18 -19q34 -33 168 -48q12 -1 23.5 -2t21.5 -2t20.5 -1.5t19 -1t16.5 -0.5t13.5 -0.5t9.5 -0.5h7h3h26v-346q0 -47 -13.5 -93
t-40.5 -89q-43 -67 -116 -126q-83 -66 -167 -100zM218 646v-294q0 -147 150 -267q67 -53 144 -88q11 5 24.5 11.5t33 18t42.5 27t44 32.5q75 59 112 126t37 140v294q-58 2 -112 8q-65 7 -110 19t-71 30q-53 -35 -181 -49q-31 -3 -60 -5t-53 -3zM559 637l-196 -335l174 80
l-43 -284l218 408l-160 -36z" />
    <glyph glyph-name="uniE619" unicode="&#xe619;" 
d="M254 655q72 56 157.5 79.5t172.5 13.5t165 -53t134.5 -114.5t80 -157t13.5 -172.5t-53 -165t-114 -134q-36 -29 -76.5 -49t-82 -31.5t-85.5 -15t-86 1.5q-87 11 -165 53.5t-134.5 114t-80 157t-13.5 172.5q7 58 28 111.5t56.5 102t82.5 86.5zM385 500l-143 -50
q-12 -4 -16 8v2l-5 50l-2 15q-56 -80 -67 -177q-4 -31 -3 -62l7 10l28 42q7 10 17 3l2 -2l52 -55l52 -55q3 -4 3 -8l5 -76l4 -76q0 -3 -1.5 -6t-4 -4.5t-5.5 -2.5q-2 0 -4 1l-76 13l2 -2q1 -2 2 -2q82 -105 212 -136l-47 64q-3 4 -2.5 9t4.5 8q2 0 3 1l140 60q4 2 8 0
l145 -43q12 -4 9 -15l-2 -3l-24 -43l-15 -25q58 21 107 60q28 22 51 48t40 56l-12 -4l-47 -16q-12 -4 -16 7v3l-14 152q0 4 2 8l86 125q7 10 17 3l2 -2l34 -37q-3 25 -9 50t-16 49.5t-23 47.5t-30 45v-8l1 -50q0 -3 -1 -5t-2.5 -3.5t-4 -2.5t-4.5 -1h-3l-148 33q-5 2 -7 5
l-93 120q-2 3 -2 6t1 6t4 5q0 1 0.5 1.5t1.5 0.5l60 27q-30 8 -61 12q-40 5 -81.5 1t-80.5 -17h2l47 -16q12 -3 8 -15q-1 -1 -1 -3l-79 -129q-1 -2 -2 -3t-2 -1.5t-3 -0.5v0zM443 438q-9 0 -11 -9l-48 -170q-3 -8 5 -13l146 -98q8 -5 15 0l139 110q7 5 4 14l-31 82l-31 83
q-3 9 -12 8z" />
    <glyph glyph-name="uniE627" unicode="&#xe627;" horiz-adv-x="1000" 
d="M930 -141h-429v1h-428q-2 7 -4.5 19t-5 44.5t0 60t15.5 55.5t37 40q38 20 80.5 53t66.5 56l24 23q5 -4 14.5 -9.5t36 -21t51.5 -27t56.5 -21t55.5 -9.5q39 0 92.5 22t87.5 44l35 22q9 -10 26 -25.5t62 -51t83 -55.5q70 -35 50 -182q-3 -22 -7 -38zM759 475l-43 -132h-39
q-31 -58 -76.5 -95t-99 -37t-99 37t-76.5 95h-39l-43 132l43 43v44q7 95 43 132q19 20 78 11q9 6 17.5 11t17.5 9t19 7l-3 6l20 -2q12 2 22 2q27 0 55 -11q15 -3 28.5 -5.5t27.5 -5.5t25.5 -6.5t20.5 -7.5t15 -8q20 -16 31 -48.5t11 -58.5l1 -25h-17q3 -9 7 -15t5.5 -7.5
t3 -6.5t1.5 -15z" />
    <glyph glyph-name="uniE629" unicode="&#xe629;" 
d="M287 176h450v-113h-450v113zM287 344h450v-112h-450v112zM906 738h-788q-23 0 -39.5 -16.5t-16.5 -39.5v-788q0 -23 16.5 -39.5t39.5 -16.5h788q23 0 39.5 16.5t16.5 39.5v788q0 23 -16.5 39.5t-39.5 16.5zM850 -50h-676v676h676v-676zM287 513h450v-113h-450v113z" />
    <glyph glyph-name="uniE62B" unicode="&#xe62b;" 
d="M512 728q-90 0 -172.5 -35t-142 -94.5t-95 -142t-35.5 -173t35.5 -173t95 -142t142 -94.5t173 -35t172.5 35t141.5 94.5t95 142t35.5 173t-35.5 173t-95 142t-142 94.5t-172.5 35zM538 548q15 18 38 29.5t44 12.5q1 -12 -0.5 -24.5t-5.5 -23.5t-10 -21.5t-13 -19.5
q-16 -19 -38.5 -30t-44.5 -10q-6 46 30 87zM698 100q-15 -22 -25 -34t-26.5 -23.5t-34.5 -11.5q-12 0 -24 3.5t-20 7.5t-21 7.5t-27 3.5q-23 0 -49.5 -11t-42.5 -12q-11 0 -21.5 4.5t-18.5 10.5t-18 16.5t-16 19t-15 20.5q-9 13 -17 28.5t-15.5 33t-12.5 36t-8.5 37.5
t-4.5 38.5t1 38t7.5 37t14.5 33.5q18 32 49 51t67 20q20 0 51.5 -12.5t40.5 -12.5q7 0 44.5 14t62.5 12q10 -1 20 -3t25.5 -7t30.5 -17t27 -29q-5 -3 -8 -5t-14.5 -12.5t-18.5 -21.5t-13.5 -29t-6.5 -38q1 -23 8.5 -43t17 -32t22 -21.5t18 -12.5t9.5 -4v-1q-17 -48 -38 -79z
" />
    <glyph glyph-name="uniE62C" unicode="&#xe62c;" 
d="M425 461q0 -7 5 -12t12 -5q3 0 5 0.5t4 1.5t3.5 2.5t2.5 3.5t2 4.5t1 4.5q0 7 -5.5 12.5t-12.5 5.5q-17 0 -17 -18zM512 707q-90 0 -172.5 -35.5t-142 -95t-95 -141.5t-35.5 -172.5t35.5 -173t95 -142t142 -95t173 -35.5t172.5 35.5t141.5 95t95 142t35.5 173
t-35.5 172.5t-95 141.5t-142 95t-172.5 35.5zM325 189q0 -15 -10 -25t-24.5 -10t-25 10t-10.5 25v150q0 14 10.5 24.5t25 10.5t24.5 -10.5t10 -24.5v-150zM676 344v-227q0 -16 -11 -26.5t-26 -10.5h-27q1 -5 1 -10v-74q0 -9 -4.5 -17.5t-12.5 -13t-18 -4.5q-7 0 -13.5 3
t-11 7.5t-7.5 11t-3 13.5v74l2 10h-65q1 -5 1 -10v-74q0 -14 -10 -24.5t-24.5 -10.5t-25 10.5t-10.5 24.5v74q0 5 1 10h-26q-16 0 -26.5 10.5t-10.5 26.5v204v53h327v-30zM349 397q0 37 22.5 68t60.5 49l-7 10l-6 9l-15 22q-3 5 2 8.5t8 -1.5l16 -24l6 -10l7 -10
q33 13 69 13q19 0 36.5 -3t33.5 -10l6 10l7 10l15 24q4 5 8.5 1.5t1.5 -8.5l-27 -41q24 -12 43 -29.5t29.5 -40t10.5 -47.5h-327zM769 189q0 -7 -2.5 -13.5t-7.5 -11.5t-11.5 -7.5t-13.5 -2.5q-14 0 -24.5 10t-10.5 25v150q0 14 10.5 24.5t24.5 10.5q10 0 18 -5t12.5 -13
t4.5 -17v-150zM565 461q0 -7 5 -12t12 -5q3 0 5.5 0.5t5 2.5t4 4t2.5 4.5t1 5.5q0 7 -5 12.5t-13 5.5q-3 0 -5.5 -1t-4.5 -2.5t-3.5 -4t-2.5 -5t-1 -5.5z" />
    <glyph glyph-name="uniE62D" unicode="&#xe62d;" 
d="M828 421q-117 -1 -232 0q-11 0 -15.5 -4t-4.5 -16q1 -155 0 -310q0 -12 4.5 -16t15.5 -4q117 1 232 0q11 0 15.5 4t4.5 16v155q0 13 -0.5 48t0 59.5t0.5 47.5q0 8 -2 12.5t-6 6t-12 1.5zM826 578h-241h-212q-39 0 -45.5 -6.5t-6.5 -46.5q-1 -7 0.5 -11.5t4.5 -7t7 -3
t11 -0.5h450q40 0 47 6.5t7 48.5q0 8 -2.5 12.5t-7 6t-12.5 1.5zM339 365q8 1 80 1h59h11q6 0 8.5 -0.5t6 0t4.5 0.5t2.5 2t2 3t1 5t0.5 6v9v12q0 10 -4 14t-14 4h-70h-69q-30 0 -33 -2.5t-3 -34.5q0 -11 4 -15t14 -4zM341 267q25 1 67.5 0.5t67.5 -0.5q7 1 16 0
q16 0 19 3.5t3 24.5v3v2v4v3q0 9 -4 12.5t-12 3.5h-79h-63q-29 -1 -31.5 -3.5t-3.5 -32.5q0 -6 1 -10t3.5 -6t6 -3t9.5 -1zM339 169h69h68h16q16 0 19 3t3 24v13q0 16 -16 16h-81h-60q-5 -1 -11 -1t-8.5 0.5t-6 0t-4.5 -0.5t-3 -2t-2 -3t-0.5 -5t-0.5 -6v-9v-12q0 -10 4 -14
t14 -4zM496 127q-25 -1 -69 -1h-68q-7 0 -16 1q-16 0 -19 -3.5t-3 -24.5v-12q0 -16 16 -16h80h19h23h19h11h9q2 0 5.5 0.5t4.5 0.5t2.5 2t2 2.5t1 5t0.5 6.5v9v12q0 10 -4 14t-14 4zM184 755v-175h-44h-115v-581q7 -27 7 -28q14 -63 60 -104t110 -48q29 -3 55 -3h541
q43 0 80 13t66 42q24 24 38.5 52t18.5 61q0 1 5 15v756h-822zM183 59q0 -64 -51 -124q-3 5 -10 14t-11 15.5t-7 12.5q-21 61 -21 86q-1 73 -1 436q0 1 1 22h99q1 -2 1 -4v-4v-4q0 -2 0.5 -4t0.5 -4v-106v-119v-102q0 -63 -1 -115zM949 60q0 -74 -57 -131.5t-131 -57.5h-99
h-96h-101h-95q-52 0 -100 1q-8 0 -18 1.5t-18 3t-19 4.5t-19 4q9 19 10 19q17 26 25 55.5t8 63.5v648v27h709q1 -20 1 -21v-617z" />
    <glyph glyph-name="uniE631" unicode="&#xe631;" 
d="M512 735q73 0 141 -22.5t123 -64t96.5 -96.5t64 -123t22.5 -141t-22.5 -141t-64 -123t-96.5 -96.5t-123 -64t-141 -22.5v166h68q6 0 17 -0.5t17.5 -0.5t16 1t16 3t14 6.5t12.5 11.5q7 9 10.5 19t3.5 25v398v8v8v8v9q0 4 -0.5 8.5t-0.5 8t-1 6.5q-2 7 -5.5 13.5t-8 11.5
t-9.5 8q-10 7 -20 8.5t-27 1.5h-103v166zM512 46h3q8 1 13 7.5t3 15.5q-1 6 -6.5 10.5t-12.5 4.5v-38zM512 123h136v388h-136v-388zM512 531h39v19h-39v-19zM512 -159q-91 0 -173.5 35.5t-142.5 95.5t-95.5 142.5t-35.5 173.5t35.5 173.5t95.5 142.5t142.5 95.5t173.5 35.5
v-166h-68h-56q-21 -3 -37 -20q-7 -8 -10.5 -19t-3.5 -25v-399q0 -48 2 -55q3 -8 6.5 -14.5t8 -11t9.5 -8.5q14 -10 47 -10h102v-166zM512 550h-39v-19h39v19zM512 511h-136v-388h3h133v388zM512 84h-3q-12 -2 -15.5 -11.5t2 -18.5t16.5 -8v38zM512 84z" />
    <glyph glyph-name="uniE635" unicode="&#xe635;" 
d="M64 671v-767h896v767h-896zM832 32h-640v512h640v-512zM399 221h-47v189h-95v-47h48v-142h-48v-48h142v48zM447 268h47v-47h-47v47zM447 363h47v-48h-47v48zM589 410h142v-47h-142v47zM542 363h47v-142h-47v142zM731 363h48v-142h-48v142zM589 221h142v-48h-142v48z" />
    <glyph glyph-name="uniE656" unicode="&#xe656;" horiz-adv-x="1000" 
d="M168 510h664v-591l-332 180l-332 -180v591zM168 692h664v-130h-664v130z" />
    <glyph glyph-name="uniE657" unicode="&#xe657;" 
d="M660 -47q-2 10 -10.5 16.5t-19.5 6.5h-66v113q-6 -1 -12.5 -2t-13 -1.5t-12.5 -0.5h-14h-12q-7 0 -13.5 0.5t-13 1.5t-12.5 2v-113h-67q-10 0 -18.5 -6.5t-11.5 -16.5l-23 -85q-4 -15 5 -28q4 -5 11 -8.5t14 -3.5h283q13 0 22 9t9 22q0 7 -2 13zM830 626q-6 2 -13 2.5
t-13 0.5h-4h-2h-4h-2v83q0 6 -2.5 11.5t-6.5 9.5t-9.5 6.5t-11.5 2.5h-500q-6 0 -11.5 -2.5t-9 -6.5t-6 -9.5t-2.5 -11.5v-83h-12h-9q-4 0 -8.5 -1t-8.5 -2q-52 -14 -76 -70.5t-6 -123.5q15 -58 55 -94.5t86 -36.5h4q2 0 5 1q3 -7 7 -15q1 -1 1 -2q6 -11 12 -20q1 -2 2 -2
q2 -3 4 -6.5t4.5 -6.5t4.5 -6l1 -1q14 -19 32 -36h1q4 -4 8.5 -8t9.5 -8h1q13 -10 26.5 -18.5t28.5 -15t31 -11.5q6 -2 12 -3.5t12 -2.5v0q12 -2 25 -4h1q13 -1 25 -1q7 0 13.5 0.5t12.5 0.5h1q12 1 25 4v0q6 1 12 2.5t12 3.5q46 14 86 45h1l18 16l11 11q6 6 11.5 12.5
t10.5 12.5l1 1q2 3 4.5 6t4.5 6.5t4 6.5q1 2 2 2l6 10q3 5 5 10l1 1q0 1 1 1q3 8 7 15l9 -1q22 0 44.5 9.5t41 26.5t33 41.5t22.5 53.5q10 46 4 85.5t-29 69.5t-57 39zM161 445q-7 31 -4 58.5t16.5 48t34.5 25.5q6 2 13 2q5 0 12 -1v-140q0 -11 1 -25v-1v-2q0 -3 0.5 -5
t0.5 -4.5t0.5 -5t1 -4.5t0.5 -5q1 -3 1 -4q1 -6 2 -11.5t3 -11.5l1 -3v-4q-26 5 -49.5 30.5t-33.5 62.5zM665 502l-83 -62l30 -99q1 -3 0 -6t-3.5 -5t-5.5 -2t-5 2l-86 59l-85 -59q-6 -4 -11.5 0t-3.5 11l31 99l-83 62q-6 4 -4 11q1 1 2 2.5t3 2.5t4 1l104 2l34 98
q3 6 9.5 6t8.5 -6l34 -98l105 -2q6 0 8 -6q1 -7 -3 -11zM863 445q-6 -24 -19 -44.5t-29.5 -33t-34.5 -15.5q1 2 1 4l1 3q2 6 3 11.5t2 11.5q0 2 1 4l2 24q1 0 1 3q0 7 0.5 13t0.5 12v140q6 1 12 1q7 0 13 -2q31 -8 44.5 -47t1.5 -85z" />
    <glyph glyph-name="uniE658" unicode="&#xe658;" 
d="M874 -127l-253 136h-473q-26 0 -48.5 13t-35 35t-12.5 48v506q0 39 28 67.5t68 28.5h728q40 0 68 -28.5t28 -67.5v-506q0 -39 -28 -67.5t-68 -28.5h-3zM148 643q-9 0 -16.5 -4.5t-11.5 -12t-4 -15.5v-506q0 -13 9 -22.5t23 -9.5h490l171 -92v92h67q14 0 23 9.5t9 22.5
v506q0 13 -9 22.5t-23 9.5h-728zM740 277h-439v64h439v-64zM740 405h-439v64h439v-64z" />
    <glyph glyph-name="uniE65E" unicode="&#xe65e;" 
d="M970 -106q0 -1 -1 -2l-3 -5q-2 -3 -4.5 -4t-6 1.5t-7.5 9.5q-2 5 -5.5 14.5t-16 37.5t-27.5 54.5t-40 61t-52 62t-65 53t-78.5 39t-92.5 13.5t-107 -17v-132q-1 -3 -1.5 -8t-5 -15.5t-12 -16t-22 -3.5t-33.5 16l-337 291l-7 5q-5 3 -13.5 12.5t-10.5 19.5t6 25.5t29 30.5
l341 293q1 1 3 2t7.5 3.5t11 4t12 1.5t12.5 -3t10.5 -11t7.5 -20v-143h1q110 -6 225 -55q240 -103 289 -334q26 -124 -7 -281z" />
    <glyph glyph-name="uniE65F" unicode="&#xe65f;" 
d="M511 736q-73 0 -141 -22.5t-123 -64t-96.5 -96.5t-64 -123t-22.5 -141q0 -91 35.5 -174t95.5 -143t142.5 -95.5t173.5 -35.5t174 35.5t143 95.5t95.5 143t35.5 174t-35.5 173.5t-95.5 142.5t-143 95.5t-174 35.5zM530 -51q-33 0 -56.5 23t-23.5 56t23.5 56t56.5 23
q21 0 39 -10.5t29 -29t11 -40t-11 -39.5t-29 -28.5t-39 -10.5zM650 290q-38 -35 -44 -78q-4 -30 -23.5 -46t-48.5 -17q-11 0 -21 3t-18.5 8.5t-15.5 13t-11.5 17t-5.5 20.5q-7 85 54 133q17 14 31 32t14 31q0 29 -16.5 47.5t-39.5 19.5q-25 1 -42 -15.5t-22 -39.5
q-1 -3 -2 -7.5t-5.5 -16t-11.5 -20.5t-20 -16.5t-30 -8.5q-28 0 -48 20t-20 49q0 31 8.5 59t24 50.5t36 40.5t43.5 30t48 18.5t49 6.5q46 0 92.5 -22.5t79.5 -67.5t34 -100q1 -43 -12.5 -74t-56.5 -70v0zM650 290z" />
    <glyph glyph-name="uniE660" unicode="&#xe660;" 
d="M544 -96h64v-64h-64v64zM416 384v352h-352v-352h64v-64h64v64h224zM128 448v224h224v-224h-224zM192 608h96v-96h-96v96zM608 736v-352h352v352h-352zM896 448h-224v224h224v-224zM736 608h96v-96h-96v96zM192 64h96v-96h-96v96zM64 320h64v-64h-64v64zM192 320h64v-64
h-64v64zM256 192h-192v-352h352v352h-96v64h-64v-64zM352 128v-224h-224v224h224zM480 704h64v-96h-64v96zM480 544h64v-64h-64v64zM672 320h-128v96h-64v-96h-160v-64h288v-64h64v64v64zM672 192h64v-64h-64v64zM480 192h64v-96h-64v96zM480 32h64v-128h-64v128zM608 96h64
v-192h-64v192zM800 192h160v-64h-160v64zM896 320h64v-64h-64v64zM736 320h128v-64h-128v64zM736 96h64v-64h-64v64zM896 32h-32v-64h64v64h32v64h-64v-64zM736 -32h64v-64h-64v64zM800 -96h160v-64h-160v64z" />
  </font>
</defs>
</svg>
